<?xml version="1.0" encoding="UTF-8"?>
<svg id="Layer_2" data-name="Layer 2" xmlns="http://www.w3.org/2000/svg" viewBox="0 0 850.19 850.58">
  <g id="Layer_1-2" data-name="Layer 1">
    <g id="cash_collection" data-name="cash collection">
      <path d="m0,588.21c5.21-8.67,12.83-11.55,22.9-11.47,45.91.36,91.83.03,137.74.3,6.65.04,10.84-1.64,15.1-7.18,20.65-26.8,46.18-47.54,80.44-52.87,46.56-7.24,86.65,6.83,119.42,41.17,3.25,3.41,7.62,6.39,12.04,7.93,34.37,11.98,68.67,24.22,103.4,35.06,28.36,8.85,52.42,22.01,63.62,51.98,39.59-11.03,78.45-22.42,117.66-32.46,12.85-3.29,26.73-5.06,39.89-4.09,25.93,1.91,43.04,17.48,52.19,41.25,9.25,24.02,4.85,46.17-11.99,65.63-10.5,12.13-23.34,20.76-38.61,26.19-82.09,29.2-164.06,58.77-246.15,87.95-13.95,4.96-28.35,8.68-42.54,12.98h-33.21c-30.82-5.38-58.21-19.63-85.58-33.67-22.08-11.33-43.6-23.74-65.33-35.75-14.12-7.81-29-12.73-45.22-13.06-3.24,17.84-6.99,20.92-24.92,20.92-12.64,0-25.27,0-38.09,0-.2,2.86-.41,4.75-.45,6.64-.37,19.54-5.32,24.48-24.69,24.49-27.91.01-55.82-.25-83.73.14-10.14.14-18.35-2.3-23.88-11.22v-220.85Zm195,145.95c25.54,1.45,47.47,9.42,68.66,21.06,32.41,17.8,65.37,34.64,98.44,51.19,19.18,9.6,39.89,13.45,61.18,9.4,11.55-2.2,22.87-6.06,33.99-10.01,82.12-29.23,164.18-58.67,246.24-88.06,10.95-3.92,20.28-10.22,26.66-20.09,13.04-20.2-.26-46.98-24.22-48.33-6.77-.38-13.9.45-20.46,2.22-40.47,10.94-80.79,22.43-121.24,33.41-5.74,1.56-8.38,4.29-10.32,9.97-10.63,31.08-42.03,49.55-74.2,42.52-18.52-4.04-36.48-10.75-54.62-16.46-32.88-10.35-65.75-20.76-98.56-31.35-11.89-3.84-16.65-13.86-11.86-23.78,3.98-8.25,12.44-11.07,23.49-7.57,46.01,14.57,92,29.22,138.02,43.78,4.19,1.33,8.48,2.61,12.83,3.17,20.24,2.6,38.23-16.24,34.72-36.29-3.25-18.58-16.75-26.96-32.92-32.46-40.48-13.76-81.05-27.26-121.39-41.42-5.84-2.05-11.57-6.31-15.69-11-24.38-27.83-55.01-39.47-91.19-34.16-27.34,4.02-46.62,21.72-62.36,43.23-3,4.1-4.91,10-4.96,15.09-.41,37.07-.22,74.14-.22,111.22,0,4.66,0,9.32,0,14.72Zm-161.35-122.99v174.56h64.18v-174.56H33.65Zm127.2,143.94v-143.66h-28.07v143.66h28.07Z"/>
      <path d="m654.08,108.35c4.71-18.94,7.5-21.08,26.85-21.09,11.87,0,23.73,0,37,0,0-4.27-.13-8,.02-11.72.5-12.62,6.6-18.79,19.16-18.84,31.54-.12,63.09-.13,94.63,0,12.31.06,18.39,6.24,18.4,18.4.05,68.62.05,137.25,0,205.87,0,11.94-6.44,18.22-18.61,18.24-47.59.06-95.19.13-142.78-.1-6.07-.03-9.82,1.61-13.66,6.64-20.72,27.16-46.58,47.11-80.88,53.92-7.52,1.49-15.43,2.04-23.07,1.56-6.12-.38-10.19,1.15-14.5,5.48-52.28,52.59-104.76,104.99-157.2,157.43-13.56,13.56-21.3,13.56-34.81.05-101.75-101.73-203.51-203.46-305.26-305.19-13.81-13.81-13.86-20.37-.28-33.95C117.6,126.55,176.1,68.05,234.62,9.56c12.81-12.81,19.82-12.75,32.8.22,15.46,15.45,31.05,30.78,46.26,46.48,3.84,3.96,6.95,4.69,12.19,2.78,27.2-9.94,54.25-20.43,81.95-28.77,30.8-9.27,61.81-5.97,90.53,7.74,36.85,17.59,72.79,37.11,108.89,56.22,14.82,7.85,29.96,13.72,46.84,14.12Zm-309.23-20.94c19.49,19.42,37.5,37.73,55.99,55.55,4.17,4.02,9.62,7.33,15.08,9.25,16.37,5.78,33.03,10.72,49.59,15.97,19.72,6.24,39.5,12.29,59.15,18.75,10.16,3.34,14.66,12.2,11.66,21.47-2.81,8.69-11.62,13.1-21.42,10.65-2.13-.53-4.19-1.39-6.29-2.06-46.8-14.79-93.59-29.66-140.43-44.32-13.04-4.08-24.77-1.21-33.95,9.04-8.42,9.39-10.62,20.49-6.06,32.4,5.29,13.82,16.62,20.83,29.92,25.34,41,13.91,82.08,27.58,122.92,41.92,5.83,2.05,11.5,6.42,15.64,11.14,25.6,29.18,57.8,40.57,95.28,33.08,27.41-5.48,46.42-24.5,61.55-47.23,1.39-2.09,1.65-5.24,1.66-7.9.1-40.39,0-80.78.16-121.16.02-5.1-1.31-7.52-6.8-7.85-20.2-1.19-38.67-7.88-56.47-17.36-35.07-18.67-70.22-37.24-105.79-54.93-20.88-10.39-43.77-13.44-66.22-7.25-24.91,6.87-49.06,16.52-75.16,25.52Zm63.58,204.48c-1.39,3.8-2.38,6.62-3.44,9.41-17.6,46.37-69.2,71.46-116.45,56.64-40.11-12.58-67.61-50-66.92-91.06.73-43.02,28.35-79.11,69.6-90.59,5.3-1.48,8.98-3.82,11.88-8.79,6.29-10.78,15.67-18.56,27.02-23.72,5.36-2.44,11.05-4.16,16.19-6.05-11.49-11.47-22.79-22.75-34.6-34.55-17.8,12.47-38.31,19.08-60.71,19.16-22.66.08-43.3-6.95-60.68-18.85-13.13,13.12-25.41,25.4-37.72,37.71,25.4,40.5,25.22,81.54.12,121.29,56.47,56.5,112.53,112.59,168.71,168.8,40.35-25.5,81.37-25.31,121.03-.15,12.8-12.78,25.22-25.18,37.87-37.81-15.41-23.24-22-49.35-17.35-78.09.29-1.79-1.86-5.25-3.61-5.89-16.57-5.97-33.3-11.5-50.93-17.47Zm408.05-26.1V90.49h-64.05v175.31h64.05Zm-523.82-54.2c-27.94,10.71-43.05,41.99-35.35,71.82,6.68,25.88,30.07,44.27,57.69,45.37,25.79,1.02,50.74-16.46,59.27-41.07,1.76-5.08,1.22-7.51-4.32-8.93-6.38-1.65-12.49-4.33-18.8-6.31-30.35-9.52-51.76-27.7-58.5-60.87Zm396.85-89.97v143.98h27.89V121.63h-27.89ZM127.42,238.55c14.23-22.77,13.8-56.34.28-71.93-12.13,12.12-24.35,24.31-36.09,36.04,11.45,11.48,23.53,23.59,35.81,35.89Zm219.01,217.48c12.07,12.04,24.27,24.21,35.37,35.28,11.32-11.36,23.48-23.55,35.46-35.57-20.18-13.12-51.22-13.04-70.83.29Zm-60.14-377.19c-12.3-12.28-24.36-24.3-35.67-35.59-11.39,11.39-23.42,23.42-35.37,35.37,17.9,13.67,52.41,13.74,71.04.23Zm217.77,291.76c7.3-7,12.96-12.43,18.91-18.15-9.25-4.95-18.15-9.72-29.52-15.8,3.96,12.67,7.18,22.96,10.62,33.95Z"/>
      <path d="m253.8,654.75c-.17-9.61,6.78-16.77,16.34-16.82,9.37-.06,16.96,7.36,16.9,16.54-.05,8.66-7.5,16.3-16.21,16.62-9.25.35-16.86-6.96-17.03-16.34Z"/>
      <path d="m596.43,221.82c.09,9.31-7.39,17.02-16.5,17-8.96-.02-16.9-8.04-16.78-16.97.11-8.63,7.63-16.26,16.34-16.57,9.03-.33,16.85,7.31,16.94,16.54Z"/>
    </g>
  </g>
</svg>