<svg xmlns="http://www.w3.org/2000/svg" xmlns:xlink="http://www.w3.org/1999/xlink" width="109" zoomAndPan="magnify" viewBox="0 0 81.75 74.999997" height="100" preserveAspectRatio="xMidYMid meet" version="1.0"><defs><g/><clipPath id="487ac47239"><path d="M 25.269531 15.472656 L 56.285156 15.472656 L 56.285156 46.488281 L 25.269531 46.488281 Z M 25.269531 15.472656 " clip-rule="nonzero"/></clipPath><clipPath id="8da63b70bc"><path d="M 30.503906 15.472656 L 51.050781 15.472656 C 53.941406 15.472656 56.285156 17.816406 56.285156 20.707031 L 56.285156 41.257812 C 56.285156 44.148438 53.941406 46.488281 51.050781 46.488281 L 30.503906 46.488281 C 27.613281 46.488281 25.269531 44.148438 25.269531 41.257812 L 25.269531 20.707031 C 25.269531 17.816406 27.613281 15.472656 30.503906 15.472656 Z M 30.503906 15.472656 " clip-rule="nonzero"/></clipPath></defs><g fill="#4c8bf5" fill-opacity="1"><g transform="translate(6.214142, 61.451906)"><g><path d="M 0.734375 -1.5 C 0.484375 -1.8125 0.359375 -2.085938 0.359375 -2.328125 C 0.359375 -2.578125 0.566406 -2.90625 0.984375 -3.3125 C 1.222656 -3.539062 1.476562 -3.65625 1.75 -3.65625 C 2.03125 -3.65625 2.410156 -3.414062 2.890625 -2.9375 C 3.023438 -2.769531 3.21875 -2.609375 3.46875 -2.453125 C 3.71875 -2.304688 3.953125 -2.234375 4.171875 -2.234375 C 5.066406 -2.234375 5.515625 -2.601562 5.515625 -3.34375 C 5.515625 -3.5625 5.390625 -3.742188 5.140625 -3.890625 C 4.898438 -4.046875 4.59375 -4.15625 4.21875 -4.21875 C 3.851562 -4.289062 3.457031 -4.398438 3.03125 -4.546875 C 2.601562 -4.703125 2.207031 -4.878906 1.84375 -5.078125 C 1.476562 -5.285156 1.171875 -5.609375 0.921875 -6.046875 C 0.671875 -6.492188 0.546875 -7.023438 0.546875 -7.640625 C 0.546875 -8.492188 0.863281 -9.238281 1.5 -9.875 C 2.132812 -10.507812 3 -10.828125 4.09375 -10.828125 C 4.675781 -10.828125 5.207031 -10.75 5.6875 -10.59375 C 6.164062 -10.445312 6.5 -10.296875 6.6875 -10.140625 L 7.046875 -9.859375 C 7.347656 -9.578125 7.5 -9.335938 7.5 -9.140625 C 7.5 -8.953125 7.382812 -8.691406 7.15625 -8.359375 C 6.820312 -7.867188 6.476562 -7.625 6.125 -7.625 C 5.925781 -7.625 5.675781 -7.722656 5.375 -7.921875 C 5.34375 -7.941406 5.285156 -7.988281 5.203125 -8.0625 C 5.117188 -8.144531 5.046875 -8.207031 4.984375 -8.25 C 4.773438 -8.375 4.515625 -8.4375 4.203125 -8.4375 C 3.890625 -8.4375 3.628906 -8.359375 3.421875 -8.203125 C 3.210938 -8.054688 3.109375 -7.847656 3.109375 -7.578125 C 3.109375 -7.316406 3.226562 -7.101562 3.46875 -6.9375 C 3.71875 -6.78125 4.023438 -6.671875 4.390625 -6.609375 C 4.765625 -6.554688 5.171875 -6.46875 5.609375 -6.34375 C 6.046875 -6.21875 6.445312 -6.066406 6.8125 -5.890625 C 7.1875 -5.722656 7.492188 -5.421875 7.734375 -4.984375 C 7.984375 -4.554688 8.109375 -4.023438 8.109375 -3.390625 C 8.109375 -2.765625 7.984375 -2.210938 7.734375 -1.734375 C 7.484375 -1.253906 7.15625 -0.882812 6.75 -0.625 C 5.957031 -0.113281 5.117188 0.140625 4.234375 0.140625 C 3.773438 0.140625 3.34375 0.0859375 2.9375 -0.015625 C 2.53125 -0.128906 2.203125 -0.269531 1.953125 -0.4375 C 1.429688 -0.75 1.070312 -1.050781 0.875 -1.34375 Z M 0.734375 -1.5 "/></g></g></g><g fill="#4c8bf5" fill-opacity="1"><g transform="translate(14.187598, 61.451906)"><g><path d="M 0.578125 2.078125 L 0.578125 -6.40625 C 0.578125 -6.632812 0.582031 -6.800781 0.59375 -6.90625 C 0.613281 -7.007812 0.65625 -7.128906 0.71875 -7.265625 C 0.863281 -7.523438 1.191406 -7.65625 1.703125 -7.65625 C 2.210938 -7.65625 2.554688 -7.585938 2.734375 -7.453125 C 2.921875 -7.328125 3.023438 -7.140625 3.046875 -6.890625 C 3.421875 -7.390625 4 -7.640625 4.78125 -7.640625 C 5.570312 -7.640625 6.320312 -7.265625 7.03125 -6.515625 C 7.738281 -5.773438 8.09375 -4.910156 8.09375 -3.921875 C 8.09375 -2.929688 7.738281 -2.0625 7.03125 -1.3125 C 6.332031 -0.570312 5.585938 -0.203125 4.796875 -0.203125 C 4.003906 -0.203125 3.425781 -0.425781 3.0625 -0.875 L 3.0625 2.0625 C 3.0625 2.28125 3.050781 2.441406 3.03125 2.546875 C 3.019531 2.660156 2.976562 2.785156 2.90625 2.921875 C 2.832031 3.066406 2.707031 3.164062 2.53125 3.21875 C 2.363281 3.28125 2.128906 3.3125 1.828125 3.3125 C 1.523438 3.3125 1.285156 3.28125 1.109375 3.21875 C 0.929688 3.164062 0.804688 3.070312 0.734375 2.9375 C 0.660156 2.800781 0.613281 2.675781 0.59375 2.5625 C 0.582031 2.457031 0.578125 2.296875 0.578125 2.078125 Z M 3.453125 -4.765625 C 3.234375 -4.503906 3.125 -4.21875 3.125 -3.90625 C 3.125 -3.59375 3.238281 -3.304688 3.46875 -3.046875 C 3.695312 -2.796875 3.988281 -2.671875 4.34375 -2.671875 C 4.695312 -2.671875 4.992188 -2.796875 5.234375 -3.046875 C 5.484375 -3.296875 5.609375 -3.582031 5.609375 -3.90625 C 5.609375 -4.226562 5.488281 -4.515625 5.25 -4.765625 C 5.019531 -5.023438 4.71875 -5.15625 4.34375 -5.15625 C 3.976562 -5.15625 3.679688 -5.023438 3.453125 -4.765625 Z M 3.453125 -4.765625 "/></g></g></g><g fill="#4c8bf5" fill-opacity="1"><g transform="translate(22.146539, 61.451906)"><g><path d="M 0.359375 -3.828125 C 0.359375 -4.984375 0.765625 -5.9375 1.578125 -6.6875 C 2.390625 -7.445312 3.316406 -7.828125 4.359375 -7.828125 C 5.410156 -7.828125 6.335938 -7.453125 7.140625 -6.703125 C 7.953125 -5.953125 8.359375 -5 8.359375 -3.84375 C 8.359375 -3.03125 8.148438 -2.3125 7.734375 -1.6875 C 7.316406 -1.0625 6.804688 -0.601562 6.203125 -0.3125 C 5.609375 -0.0195312 4.992188 0.125 4.359375 0.125 C 3.722656 0.125 3.101562 -0.03125 2.5 -0.34375 C 1.894531 -0.65625 1.382812 -1.117188 0.96875 -1.734375 C 0.5625 -2.347656 0.359375 -3.046875 0.359375 -3.828125 Z M 3.390625 -2.78125 C 3.703125 -2.539062 4.019531 -2.421875 4.34375 -2.421875 C 4.664062 -2.421875 4.984375 -2.539062 5.296875 -2.78125 C 5.617188 -3.03125 5.78125 -3.390625 5.78125 -3.859375 C 5.78125 -4.335938 5.628906 -4.691406 5.328125 -4.921875 C 5.023438 -5.160156 4.703125 -5.28125 4.359375 -5.28125 C 4.015625 -5.28125 3.691406 -5.15625 3.390625 -4.90625 C 3.085938 -4.664062 2.9375 -4.3125 2.9375 -3.84375 C 2.9375 -3.375 3.085938 -3.019531 3.390625 -2.78125 Z M 3.390625 -2.78125 "/></g></g></g><g fill="#4c8bf5" fill-opacity="1"><g transform="translate(30.366908, 61.451906)"><g><path d="M 5.03125 -5.078125 L 4.078125 -5.140625 L 4.078125 -3.140625 C 4.078125 -2.878906 4.117188 -2.6875 4.203125 -2.5625 C 4.285156 -2.445312 4.441406 -2.390625 4.671875 -2.390625 C 4.898438 -2.390625 5.070312 -2.382812 5.1875 -2.375 C 5.3125 -2.363281 5.441406 -2.316406 5.578125 -2.234375 C 5.804688 -2.109375 5.921875 -1.785156 5.921875 -1.265625 C 5.921875 -0.648438 5.78125 -0.273438 5.5 -0.140625 C 5.363281 -0.078125 5.238281 -0.0351562 5.125 -0.015625 C 5.007812 -0.00390625 4.847656 0 4.640625 0 C 3.628906 0 2.863281 -0.222656 2.34375 -0.671875 C 1.820312 -1.128906 1.5625 -1.90625 1.5625 -3 L 1.5625 -5.140625 C 1.375 -5.109375 1.171875 -5.09375 0.953125 -5.09375 C 0.742188 -5.09375 0.566406 -5.175781 0.421875 -5.34375 C 0.285156 -5.507812 0.21875 -5.789062 0.21875 -6.1875 C 0.21875 -6.582031 0.238281 -6.867188 0.28125 -7.046875 C 0.332031 -7.234375 0.40625 -7.363281 0.5 -7.4375 C 0.644531 -7.5625 0.835938 -7.625 1.078125 -7.625 L 1.5625 -7.578125 L 1.5625 -9.0625 C 1.5625 -9.289062 1.566406 -9.457031 1.578125 -9.5625 C 1.585938 -9.664062 1.632812 -9.78125 1.71875 -9.90625 C 1.84375 -10.15625 2.210938 -10.28125 2.828125 -10.28125 C 3.492188 -10.28125 3.890625 -10.097656 4.015625 -9.734375 C 4.054688 -9.578125 4.078125 -9.332031 4.078125 -9 L 4.078125 -7.578125 C 4.503906 -7.609375 4.828125 -7.625 5.046875 -7.625 C 5.265625 -7.625 5.425781 -7.613281 5.53125 -7.59375 C 5.644531 -7.582031 5.773438 -7.539062 5.921875 -7.46875 C 6.179688 -7.34375 6.3125 -6.96875 6.3125 -6.34375 C 6.3125 -5.738281 6.179688 -5.367188 5.921875 -5.234375 C 5.773438 -5.160156 5.644531 -5.113281 5.53125 -5.09375 C 5.414062 -5.082031 5.25 -5.078125 5.03125 -5.078125 Z M 5.03125 -5.078125 "/></g></g></g><g fill="#4c8bf5" fill-opacity="1"><g transform="translate(36.394195, 61.451906)"><g><path d="M 0.734375 -1.5 C 0.484375 -1.8125 0.359375 -2.085938 0.359375 -2.328125 C 0.359375 -2.578125 0.566406 -2.90625 0.984375 -3.3125 C 1.222656 -3.539062 1.476562 -3.65625 1.75 -3.65625 C 2.03125 -3.65625 2.410156 -3.414062 2.890625 -2.9375 C 3.023438 -2.769531 3.21875 -2.609375 3.46875 -2.453125 C 3.71875 -2.304688 3.953125 -2.234375 4.171875 -2.234375 C 5.066406 -2.234375 5.515625 -2.601562 5.515625 -3.34375 C 5.515625 -3.5625 5.390625 -3.742188 5.140625 -3.890625 C 4.898438 -4.046875 4.59375 -4.15625 4.21875 -4.21875 C 3.851562 -4.289062 3.457031 -4.398438 3.03125 -4.546875 C 2.601562 -4.703125 2.207031 -4.878906 1.84375 -5.078125 C 1.476562 -5.285156 1.171875 -5.609375 0.921875 -6.046875 C 0.671875 -6.492188 0.546875 -7.023438 0.546875 -7.640625 C 0.546875 -8.492188 0.863281 -9.238281 1.5 -9.875 C 2.132812 -10.507812 3 -10.828125 4.09375 -10.828125 C 4.675781 -10.828125 5.207031 -10.75 5.6875 -10.59375 C 6.164062 -10.445312 6.5 -10.296875 6.6875 -10.140625 L 7.046875 -9.859375 C 7.347656 -9.578125 7.5 -9.335938 7.5 -9.140625 C 7.5 -8.953125 7.382812 -8.691406 7.15625 -8.359375 C 6.820312 -7.867188 6.476562 -7.625 6.125 -7.625 C 5.925781 -7.625 5.675781 -7.722656 5.375 -7.921875 C 5.34375 -7.941406 5.285156 -7.988281 5.203125 -8.0625 C 5.117188 -8.144531 5.046875 -8.207031 4.984375 -8.25 C 4.773438 -8.375 4.515625 -8.4375 4.203125 -8.4375 C 3.890625 -8.4375 3.628906 -8.359375 3.421875 -8.203125 C 3.210938 -8.054688 3.109375 -7.847656 3.109375 -7.578125 C 3.109375 -7.316406 3.226562 -7.101562 3.46875 -6.9375 C 3.71875 -6.78125 4.023438 -6.671875 4.390625 -6.609375 C 4.765625 -6.554688 5.171875 -6.46875 5.609375 -6.34375 C 6.046875 -6.21875 6.445312 -6.066406 6.8125 -5.890625 C 7.1875 -5.722656 7.492188 -5.421875 7.734375 -4.984375 C 7.984375 -4.554688 8.109375 -4.023438 8.109375 -3.390625 C 8.109375 -2.765625 7.984375 -2.210938 7.734375 -1.734375 C 7.484375 -1.253906 7.15625 -0.882812 6.75 -0.625 C 5.957031 -0.113281 5.117188 0.140625 4.234375 0.140625 C 3.773438 0.140625 3.34375 0.0859375 2.9375 -0.015625 C 2.53125 -0.128906 2.203125 -0.269531 1.953125 -0.4375 C 1.429688 -0.75 1.070312 -1.050781 0.875 -1.34375 Z M 0.734375 -1.5 "/></g></g></g><g fill="#4c8bf5" fill-opacity="1"><g transform="translate(44.36765, 61.451906)"><g><path d="M 7.96875 -4.734375 C 7.96875 -4.140625 7.816406 -3.703125 7.515625 -3.421875 C 7.222656 -3.140625 6.894531 -3 6.53125 -3 L 3.09375 -3 C 3.09375 -2.726562 3.25 -2.5 3.5625 -2.3125 C 3.882812 -2.125 4.207031 -2.03125 4.53125 -2.03125 C 5.09375 -2.03125 5.535156 -2.085938 5.859375 -2.203125 L 6.015625 -2.265625 C 6.242188 -2.367188 6.4375 -2.421875 6.59375 -2.421875 C 6.90625 -2.421875 7.171875 -2.203125 7.390625 -1.765625 C 7.515625 -1.503906 7.578125 -1.285156 7.578125 -1.109375 C 7.578125 -0.242188 6.546875 0.1875 4.484375 0.1875 C 3.773438 0.1875 3.140625 0.0664062 2.578125 -0.171875 C 2.023438 -0.421875 1.59375 -0.75 1.28125 -1.15625 C 0.664062 -1.945312 0.359375 -2.828125 0.359375 -3.796875 C 0.359375 -5.015625 0.753906 -5.988281 1.546875 -6.71875 C 2.335938 -7.445312 3.320312 -7.8125 4.5 -7.8125 C 5.851562 -7.8125 6.84375 -7.335938 7.46875 -6.390625 C 7.800781 -5.890625 7.96875 -5.335938 7.96875 -4.734375 Z M 4.890625 -4.3125 C 5.265625 -4.3125 5.453125 -4.46875 5.453125 -4.78125 C 5.453125 -5 5.363281 -5.175781 5.1875 -5.3125 C 5.019531 -5.445312 4.78125 -5.515625 4.46875 -5.515625 C 4.15625 -5.515625 3.84375 -5.382812 3.53125 -5.125 C 3.21875 -4.875 3.0625 -4.601562 3.0625 -4.3125 Z M 4.890625 -4.3125 "/></g></g></g><g fill="#4c8bf5" fill-opacity="1"><g transform="translate(52.195877, 61.451906)"><g><path d="M 5.78125 -7.5625 C 5.96875 -7.507812 6.117188 -7.410156 6.234375 -7.265625 C 6.359375 -7.128906 6.421875 -6.90625 6.421875 -6.59375 C 6.421875 -6.28125 6.328125 -5.941406 6.140625 -5.578125 C 5.960938 -5.210938 5.695312 -5.03125 5.34375 -5.03125 C 5.164062 -5.03125 5 -5.066406 4.84375 -5.140625 C 4.6875 -5.222656 4.476562 -5.265625 4.21875 -5.265625 C 3.957031 -5.265625 3.710938 -5.171875 3.484375 -4.984375 C 3.253906 -4.796875 3.140625 -4.570312 3.140625 -4.3125 L 3.140625 -1.265625 C 3.140625 -1.046875 3.128906 -0.878906 3.109375 -0.765625 C 3.097656 -0.648438 3.054688 -0.519531 2.984375 -0.375 C 2.835938 -0.125 2.457031 0 1.84375 0 C 1.375 0 1.039062 -0.0820312 0.84375 -0.25 C 0.6875 -0.382812 0.597656 -0.59375 0.578125 -0.875 C 0.578125 -0.96875 0.578125 -1.109375 0.578125 -1.296875 L 0.578125 -6.390625 C 0.578125 -6.617188 0.582031 -6.785156 0.59375 -6.890625 C 0.613281 -7.003906 0.65625 -7.128906 0.71875 -7.265625 C 0.863281 -7.523438 1.242188 -7.65625 1.859375 -7.65625 C 2.441406 -7.65625 2.804688 -7.546875 2.953125 -7.328125 C 3.054688 -7.171875 3.109375 -7.007812 3.109375 -6.84375 C 3.160156 -6.914062 3.226562 -7 3.3125 -7.09375 C 3.40625 -7.1875 3.601562 -7.316406 3.90625 -7.484375 C 4.207031 -7.648438 4.472656 -7.734375 4.703125 -7.734375 C 4.929688 -7.734375 5.117188 -7.71875 5.265625 -7.6875 C 5.421875 -7.664062 5.59375 -7.625 5.78125 -7.5625 Z M 5.78125 -7.5625 "/></g></g></g><g fill="#4c8bf5" fill-opacity="1"><g transform="translate(58.339361, 61.451906)"><g><path d="M 8.296875 -7.484375 C 8.796875 -7.179688 9.046875 -6.863281 9.046875 -6.53125 C 9.046875 -6.332031 8.953125 -6.0625 8.765625 -5.71875 L 5.75 -0.5625 C 5.65625 -0.394531 5.5 -0.242188 5.28125 -0.109375 C 5.070312 0.015625 4.863281 0.078125 4.65625 0.078125 C 4.445312 0.078125 4.25 0.0234375 4.0625 -0.078125 C 3.875 -0.179688 3.738281 -0.285156 3.65625 -0.390625 L 3.53125 -0.546875 L 0.515625 -5.71875 C 0.316406 -6.039062 0.21875 -6.304688 0.21875 -6.515625 C 0.21875 -6.859375 0.46875 -7.179688 0.96875 -7.484375 C 1.34375 -7.691406 1.632812 -7.796875 1.84375 -7.796875 C 2.0625 -7.796875 2.226562 -7.726562 2.34375 -7.59375 C 2.46875 -7.46875 2.597656 -7.273438 2.734375 -7.015625 L 4.640625 -3.359375 L 6.53125 -7.015625 C 6.644531 -7.203125 6.726562 -7.335938 6.78125 -7.421875 C 6.832031 -7.503906 6.914062 -7.582031 7.03125 -7.65625 C 7.144531 -7.738281 7.296875 -7.78125 7.484375 -7.78125 C 7.679688 -7.78125 7.953125 -7.679688 8.296875 -7.484375 Z M 8.296875 -7.484375 "/></g></g></g><g fill="#4c8bf5" fill-opacity="1"><g transform="translate(67.111614, 61.451906)"><g><path d="M 7.96875 -4.734375 C 7.96875 -4.140625 7.816406 -3.703125 7.515625 -3.421875 C 7.222656 -3.140625 6.894531 -3 6.53125 -3 L 3.09375 -3 C 3.09375 -2.726562 3.25 -2.5 3.5625 -2.3125 C 3.882812 -2.125 4.207031 -2.03125 4.53125 -2.03125 C 5.09375 -2.03125 5.535156 -2.085938 5.859375 -2.203125 L 6.015625 -2.265625 C 6.242188 -2.367188 6.4375 -2.421875 6.59375 -2.421875 C 6.90625 -2.421875 7.171875 -2.203125 7.390625 -1.765625 C 7.515625 -1.503906 7.578125 -1.285156 7.578125 -1.109375 C 7.578125 -0.242188 6.546875 0.1875 4.484375 0.1875 C 3.773438 0.1875 3.140625 0.0664062 2.578125 -0.171875 C 2.023438 -0.421875 1.59375 -0.75 1.28125 -1.15625 C 0.664062 -1.945312 0.359375 -2.828125 0.359375 -3.796875 C 0.359375 -5.015625 0.753906 -5.988281 1.546875 -6.71875 C 2.335938 -7.445312 3.320312 -7.8125 4.5 -7.8125 C 5.851562 -7.8125 6.84375 -7.335938 7.46875 -6.390625 C 7.800781 -5.890625 7.96875 -5.335938 7.96875 -4.734375 Z M 4.890625 -4.3125 C 5.265625 -4.3125 5.453125 -4.46875 5.453125 -4.78125 C 5.453125 -5 5.363281 -5.175781 5.1875 -5.3125 C 5.019531 -5.445312 4.78125 -5.515625 4.46875 -5.515625 C 4.15625 -5.515625 3.84375 -5.382812 3.53125 -5.125 C 3.21875 -4.875 3.0625 -4.601562 3.0625 -4.3125 Z M 4.890625 -4.3125 "/></g></g></g><g fill="#4c8bf5" fill-opacity="1"><g transform="translate(74.93984, 61.451906)"><g><path d="M 2.828125 -2.390625 C 2.992188 -2.234375 3.078125 -1.894531 3.078125 -1.375 L 3.078125 -1.328125 C 3.078125 -1.085938 3.066406 -0.910156 3.046875 -0.796875 C 3.035156 -0.691406 2.988281 -0.5625 2.90625 -0.40625 C 2.757812 -0.125 2.394531 0.015625 1.8125 0.015625 C 1.226562 0.015625 0.835938 -0.0703125 0.640625 -0.25 C 0.453125 -0.4375 0.359375 -0.789062 0.359375 -1.3125 L 0.359375 -1.359375 C 0.359375 -1.585938 0.363281 -1.757812 0.375 -1.875 C 0.394531 -1.988281 0.441406 -2.117188 0.515625 -2.265625 C 0.660156 -2.554688 1.023438 -2.703125 1.609375 -2.703125 C 2.203125 -2.703125 2.609375 -2.597656 2.828125 -2.390625 Z M 2.828125 -2.390625 "/></g></g></g><g clip-path="url(#487ac47239)"><g clip-path="url(#8da63b70bc)"><path fill="#4c8bf5" d="M 25.269531 15.472656 L 56.285156 15.472656 L 56.285156 46.488281 L 25.269531 46.488281 Z M 25.269531 15.472656 " fill-opacity="1" fill-rule="nonzero"/></g></g><g fill="#ffffff" fill-opacity="1"><g transform="translate(40.953956, 35.67958)"><g><path d="M -0.59375 -2.0625 C -1.101562 -2.132812 -1.460938 -2.285156 -1.671875 -2.515625 C -1.890625 -2.753906 -1.976562 -3.242188 -1.9375 -3.984375 C -1.90625 -4.421875 -1.757812 -4.753906 -1.5 -4.984375 C -1.25 -5.222656 -0.6875 -5.328125 0.1875 -5.296875 C 0.46875 -5.253906 0.789062 -5.269531 1.15625 -5.34375 C 1.53125 -5.425781 1.816406 -5.5625 2.015625 -5.75 C 2.867188 -6.53125 2.972656 -7.269531 2.328125 -7.96875 C 2.140625 -8.175781 1.863281 -8.242188 1.5 -8.171875 C 1.132812 -8.097656 0.742188 -7.929688 0.328125 -7.671875 C -0.078125 -7.410156 -0.546875 -7.164062 -1.078125 -6.9375 C -1.617188 -6.71875 -2.148438 -6.539062 -2.671875 -6.40625 C -3.191406 -6.28125 -3.757812 -6.316406 -4.375 -6.515625 C -5 -6.722656 -5.582031 -7.125 -6.125 -7.71875 C -6.863281 -8.519531 -7.207031 -9.5 -7.15625 -10.65625 C -7.101562 -11.8125 -6.5625 -12.863281 -5.53125 -13.8125 C -4.976562 -14.3125 -4.410156 -14.695312 -3.828125 -14.96875 C -3.242188 -15.25 -2.796875 -15.398438 -2.484375 -15.421875 L -1.890625 -15.46875 C -1.359375 -15.46875 -1.007812 -15.375 -0.84375 -15.1875 C -0.675781 -15 -0.554688 -14.640625 -0.484375 -14.109375 C -0.378906 -13.367188 -0.492188 -12.847656 -0.828125 -12.546875 C -1.015625 -12.367188 -1.332031 -12.242188 -1.78125 -12.171875 C -1.820312 -12.171875 -1.914062 -12.171875 -2.0625 -12.171875 C -2.21875 -12.171875 -2.347656 -12.160156 -2.453125 -12.140625 C -2.742188 -12.078125 -3.039062 -11.90625 -3.34375 -11.625 C -3.644531 -11.351562 -3.828125 -11.054688 -3.890625 -10.734375 C -3.953125 -10.421875 -3.867188 -10.140625 -3.640625 -9.890625 C -3.410156 -9.640625 -3.101562 -9.539062 -2.71875 -9.59375 C -2.34375 -9.65625 -1.957031 -9.816406 -1.5625 -10.078125 C -1.175781 -10.347656 -0.722656 -10.613281 -0.203125 -10.875 C 0.316406 -11.144531 0.828125 -11.359375 1.328125 -11.515625 C 1.828125 -11.671875 2.382812 -11.648438 3 -11.453125 C 3.613281 -11.253906 4.191406 -10.859375 4.734375 -10.265625 C 5.273438 -9.671875 5.632812 -9.035156 5.8125 -8.359375 C 5.988281 -7.691406 6 -7.050781 5.84375 -6.4375 C 5.550781 -5.28125 4.976562 -4.3125 4.125 -3.53125 C 3.695312 -3.132812 3.238281 -2.8125 2.75 -2.5625 C 2.269531 -2.320312 1.84375 -2.171875 1.46875 -2.109375 C 0.707031 -1.960938 0.109375 -1.9375 -0.328125 -2.03125 Z M -0.59375 -2.0625 "/></g></g></g><g fill="#ffffff" fill-opacity="1"><g transform="translate(29.677157, 40.959076)"><g><path d="M 2.140625 1.957031 C 2.167969 1.957031 2.179688 1.933594 2.191406 1.90625 L 2.179688 1.859375 C 2.128906 1.820312 2.128906 1.734375 2.082031 1.660156 C 2.019531 1.472656 1.96875 1.277344 1.96875 1.050781 C 1.957031 0.804688 1.992188 0.582031 2.019531 0.320312 C 2.09375 -0.285156 2.253906 -0.867188 2.390625 -1.460938 C 2.414062 -1.574219 2.464844 -1.695312 2.5625 -1.769531 C 2.601562 -1.722656 2.636719 -1.660156 2.6875 -1.597656 C 2.898438 -1.261719 3.183594 -1.089844 3.542969 -1.015625 C 3.714844 -0.976562 3.914062 -1.003906 4.097656 -1.003906 C 4.433594 -1.015625 4.742188 -1.152344 5.066406 -1.261719 C 5.3125 -1.398438 5.5625 -1.535156 5.808594 -1.683594 C 6.019531 -1.785156 6.179688 -1.90625 6.378906 -2.105469 C 6.539062 -2.242188 6.710938 -2.464844 6.886719 -2.5625 C 6.949219 -2.589844 6.984375 -2.675781 6.984375 -2.738281 C 6.972656 -2.859375 7.046875 -2.984375 7.085938 -3.097656 C 7.144531 -3.269531 7.195312 -3.628906 7.160156 -3.738281 C 7.109375 -3.949219 7.058594 -4.113281 7.011719 -4.296875 C 6.984375 -4.371094 6.960938 -4.445312 6.921875 -4.472656 C 6.8125 -4.570312 6.738281 -4.679688 6.6875 -4.832031 C 6.652344 -4.867188 6.613281 -4.878906 6.578125 -4.917969 C 6.367188 -5.128906 6.09375 -5.3125 5.796875 -5.414062 C 5.238281 -5.621094 4.667969 -5.636719 4.125 -5.546875 C 3.554688 -5.460938 3.007812 -5.277344 2.488281 -5.015625 C 2.082031 -4.816406 1.695312 -4.570312 1.324219 -4.285156 C 1.203125 -4.222656 1.101562 -4.097656 1.003906 -4 C 0.816406 -3.789062 0.828125 -3.542969 0.992188 -3.34375 C 1.039062 -3.292969 1.089844 -3.28125 1.152344 -3.320312 L 1.449219 -3.640625 L 1.648438 -3.789062 C 1.722656 -3.875 1.808594 -3.914062 1.894531 -3.976562 C 2.15625 -4.1875 2.441406 -4.308594 2.738281 -4.457031 C 2.761719 -4.484375 2.785156 -4.484375 2.875 -4.507812 C 2.75 -4.1875 2.648438 -3.914062 2.5625 -3.617188 C 2.351562 -2.972656 2.128906 -2.316406 1.917969 -1.660156 C 1.734375 -0.992188 1.609375 -0.308594 1.5 0.410156 C 1.460938 0.742188 1.472656 1.078125 1.621094 1.410156 C 1.695312 1.621094 1.785156 1.808594 1.96875 1.917969 C 2.03125 1.957031 2.082031 1.992188 2.140625 1.957031 Z M 3.828125 -1.585938 C 3.53125 -1.546875 3.234375 -1.597656 2.960938 -1.769531 C 2.898438 -1.808594 2.835938 -1.84375 2.773438 -1.894531 C 2.726562 -1.945312 2.5625 -2.105469 2.75 -2.515625 C 2.8125 -2.6875 2.875 -2.859375 2.949219 -3.046875 C 3.121094 -3.503906 3.292969 -3.964844 3.492188 -4.410156 C 3.542969 -4.570312 3.589844 -4.707031 3.664062 -4.917969 C 4 -4.980469 4.335938 -5.054688 4.65625 -5.089844 C 4.917969 -5.101562 5.164062 -5.128906 5.425781 -5.066406 C 5.710938 -5.015625 5.996094 -4.953125 6.253906 -4.816406 C 6.339844 -4.753906 6.390625 -4.71875 6.453125 -4.679688 C 6.601562 -4.582031 6.710938 -4.421875 6.761719 -4.222656 C 6.859375 -3.789062 6.8125 -3.429688 6.578125 -3.109375 C 6.464844 -2.933594 6.328125 -2.785156 6.15625 -2.648438 C 5.859375 -2.390625 5.523438 -2.179688 5.1875 -2.03125 C 4.742188 -1.808594 4.285156 -1.648438 3.828125 -1.585938 Z M 3.828125 -1.585938 "/></g></g></g><g fill="#ffffff" fill-opacity="1"><g transform="translate(36.674628, 40.959076)"><g><path d="M 4.695312 -1.648438 L 4.644531 -1.757812 L 4.605469 -1.785156 C 4.484375 -1.710938 4.382812 -1.648438 4.296875 -1.574219 C 4.011719 -1.386719 4.039062 -1.410156 3.738281 -1.226562 C 3.566406 -1.101562 3.382812 -0.992188 3.21875 -0.890625 C 3.046875 -0.769531 2.847656 -0.621094 2.648438 -0.53125 C 2.601562 -0.507812 2.550781 -0.507812 2.515625 -0.496094 C 2.476562 -0.484375 2.453125 -0.484375 2.425781 -0.496094 C 2.367188 -0.53125 2.328125 -0.582031 2.316406 -0.632812 C 2.242188 -0.804688 2.242188 -0.992188 2.277344 -1.164062 C 2.292969 -1.1875 2.292969 -1.214844 2.304688 -1.226562 C 2.339844 -1.324219 2.328125 -1.460938 2.328125 -1.460938 C 2.304688 -1.546875 2.253906 -1.609375 2.179688 -1.636719 C 2.03125 -1.648438 1.945312 -1.546875 1.84375 -1.535156 C 1.90625 -1.660156 2.007812 -1.769531 1.96875 -1.945312 C 1.917969 -2.230469 1.621094 -2.277344 1.363281 -2.328125 C 1.128906 -2.304688 0.917969 -2.15625 0.769531 -1.992188 C 0.621094 -1.808594 0.457031 -1.660156 0.320312 -1.449219 C 0.296875 -1.425781 0.273438 -1.363281 0.222656 -1.300781 L 0.136719 -1.152344 C 0.113281 -1.066406 0.0742188 -1.003906 0.0625 -0.929688 C 0.0625 -0.917969 0.0625 -0.917969 0.0507812 -0.902344 C 0.0234375 -0.828125 0 -0.769531 -0.0390625 -0.679688 C -0.0859375 -0.496094 -0.0507812 -0.335938 0.0625 -0.1875 C 0.136719 -0.148438 0.234375 -0.0859375 0.261719 -0.0625 C 0.296875 -0.0507812 0.335938 -0.0507812 0.359375 -0.0507812 C 0.546875 0.0234375 0.753906 0.0234375 0.953125 -0.0742188 C 1.152344 -0.160156 1.351562 -0.320312 1.5 -0.433594 C 1.523438 -0.445312 1.535156 -0.484375 1.558594 -0.507812 C 1.648438 -0.507812 1.648438 -0.632812 1.734375 -0.679688 C 1.746094 -0.65625 1.746094 -0.632812 1.769531 -0.621094 C 1.808594 -0.558594 1.796875 -0.53125 1.871094 -0.457031 C 1.917969 -0.347656 2.007812 -0.296875 2.082031 -0.199219 C 2.117188 -0.1875 2.140625 -0.136719 2.179688 -0.125 C 2.203125 -0.0976562 2.277344 -0.0976562 2.304688 -0.0859375 C 2.351562 -0.0742188 2.464844 -0.0976562 2.515625 -0.0976562 C 2.550781 -0.0976562 2.613281 -0.125 2.625 -0.125 C 2.664062 -0.125 2.726562 -0.148438 2.75 -0.160156 C 2.8125 -0.199219 2.847656 -0.1875 2.921875 -0.222656 C 3.046875 -0.308594 3.15625 -0.335938 3.257812 -0.445312 L 3.554688 -0.667969 L 3.738281 -0.828125 C 3.777344 -0.84375 3.863281 -0.941406 3.875 -0.953125 C 3.9375 -0.976562 3.988281 -1.039062 4.023438 -1.078125 C 4.0625 -1.101562 4.148438 -1.140625 4.210938 -1.1875 C 4.371094 -1.300781 4.570312 -1.460938 4.695312 -1.648438 Z M 1.671875 -1.300781 C 1.484375 -1.101562 1.398438 -0.953125 1.214844 -0.753906 C 1.089844 -0.621094 0.976562 -0.53125 0.816406 -0.46875 C 0.695312 -0.421875 0.46875 -0.410156 0.335938 -0.410156 C 0.394531 -0.65625 0.507812 -0.867188 0.621094 -1.066406 C 0.753906 -1.300781 1.1875 -1.882812 1.558594 -1.945312 C 1.546875 -1.933594 1.449219 -1.386719 1.722656 -1.363281 L 1.734375 -1.363281 C 1.734375 -1.363281 1.683594 -1.300781 1.671875 -1.300781 Z M 1.671875 -1.300781 "/></g></g></g><g fill="#ffffff" fill-opacity="1"><g transform="translate(40.266257, 40.959076)"><g><path d="M 0.273438 0.222656 C 0.371094 0.261719 0.421875 0.234375 0.445312 0.0859375 C 0.46875 0 0.46875 -0.0859375 0.496094 -0.171875 C 0.53125 -0.285156 0.546875 -0.394531 0.59375 -0.519531 C 0.667969 -0.667969 0.769531 -0.804688 0.84375 -0.976562 C 0.929688 -1.128906 1.027344 -1.25 1.113281 -1.375 L 1.351562 -1.683594 C 1.410156 -1.746094 1.484375 -1.808594 1.558594 -1.871094 C 1.585938 -1.90625 1.609375 -1.957031 1.648438 -1.96875 C 1.722656 -2.019531 1.796875 -2.042969 1.84375 -2.105469 C 1.917969 -2.167969 1.992188 -2.15625 2.066406 -2.15625 C 2.230469 -2.082031 2.304688 -2.117188 2.304688 -2.117188 L 2.316406 -2.179688 C 2.292969 -2.242188 2.265625 -2.292969 2.21875 -2.328125 C 2.191406 -2.328125 2.179688 -2.351562 2.167969 -2.367188 C 2.117188 -2.414062 2.054688 -2.464844 1.992188 -2.515625 C 1.84375 -2.601562 1.671875 -2.601562 1.511719 -2.476562 C 1.375 -2.390625 1.238281 -2.292969 1.128906 -2.128906 C 1.039062 -2.042969 0.964844 -1.980469 0.902344 -1.871094 C 0.890625 -1.832031 0.84375 -1.796875 0.804688 -1.746094 C 0.804688 -1.808594 0.828125 -1.84375 0.828125 -1.882812 C 0.84375 -1.992188 0.828125 -2.105469 0.792969 -2.203125 C 0.742188 -2.390625 0.644531 -2.453125 0.519531 -2.402344 C 0.484375 -2.402344 0.433594 -2.378906 0.410156 -2.339844 C 0.394531 -2.328125 0.394531 -2.277344 0.382812 -2.253906 C 0.359375 -2.082031 0.320312 -1.917969 0.296875 -1.746094 C 0.273438 -1.585938 0.210938 -1.410156 0.1875 -1.238281 C 0.1875 -1.101562 0.136719 -0.964844 0.113281 -0.828125 L 0.0117188 -0.320312 C -0.0234375 -0.160156 0.0390625 -0.0390625 0.0859375 0.0859375 C 0.1875 0.136719 0.199219 0.1875 0.273438 0.222656 Z M 0.273438 0.222656 "/></g></g></g><g fill="#ffffff" fill-opacity="1"><g transform="translate(42.272618, 40.959076)"><g><path d="M 2.601562 -4.085938 C 2.675781 -4.097656 2.835938 -4.125 2.886719 -4.085938 C 2.972656 -4.125 3.097656 -4.125 3.171875 -4.125 L 3.195312 -4.136719 C 3.246094 -4.210938 3.429688 -4.222656 3.394531 -4.347656 C 3.355469 -4.371094 3.292969 -4.324219 3.269531 -4.308594 C 3.007812 -4.261719 2.933594 -4.273438 2.339844 -4.296875 C 2.292969 -4.285156 2.191406 -4.324219 2.019531 -4.335938 C 2.042969 -4.472656 2.082031 -4.53125 2.167969 -4.78125 C 2.230469 -4.941406 2.328125 -5.101562 2.367188 -5.25 C 2.488281 -5.460938 2.589844 -5.683594 2.6875 -5.921875 C 2.726562 -6.007812 2.761719 -6.070312 2.664062 -6.128906 C 2.636719 -6.167969 2.589844 -6.191406 2.574219 -6.230469 C 2.5625 -6.328125 2.453125 -6.351562 2.351562 -6.414062 C 2.328125 -6.425781 2.304688 -6.425781 2.292969 -6.453125 C 2.242188 -6.464844 2.203125 -6.453125 2.179688 -6.378906 C 2.15625 -6.292969 2.105469 -6.167969 2.082031 -6.082031 C 2.042969 -6.019531 2.007812 -5.996094 2.007812 -5.945312 C 1.933594 -5.796875 1.90625 -5.660156 1.84375 -5.523438 C 1.808594 -5.375 1.734375 -5.238281 1.695312 -5.113281 C 1.648438 -4.992188 1.597656 -4.878906 1.558594 -4.753906 C 1.484375 -4.632812 1.472656 -4.507812 1.398438 -4.382812 C 1.324219 -4.382812 1.238281 -4.382812 1.128906 -4.371094 L 0.890625 -4.398438 C 0.804688 -4.433594 0.71875 -4.410156 0.644531 -4.371094 C 0.621094 -4.359375 0.582031 -4.371094 0.570312 -4.371094 C 0.570312 -4.371094 0.519531 -4.382812 0.457031 -4.308594 C 0.394531 -4.285156 0.371094 -4.210938 0.371094 -4.171875 C 0.382812 -4.0625 0.519531 -4.039062 0.667969 -4 C 0.902344 -3.976562 1.078125 -3.964844 1.238281 -3.964844 L 1.113281 -3.578125 L 0.71875 -2.339844 C 0.730469 -2.328125 0.730469 -2.304688 0.742188 -2.292969 L 0.71875 -2.292969 C 0.695312 -2.230469 0.65625 -2.191406 0.65625 -2.140625 C 0.605469 -1.980469 0.605469 -1.84375 0.558594 -1.710938 L 0.46875 -1.363281 C 0.445312 -1.214844 0.394531 -1.066406 0.410156 -0.917969 C 0.382812 -0.65625 0.347656 -0.410156 0.394531 -0.160156 C 0.445312 0.0859375 0.496094 0.335938 0.632812 0.53125 C 0.65625 0.558594 0.679688 0.582031 0.707031 0.621094 C 0.804688 0.730469 0.855469 0.804688 0.964844 0.84375 C 1.140625 0.953125 1.175781 0.941406 1.363281 0.929688 L 1.335938 0.929688 C 1.410156 0.929688 1.4375 0.917969 1.460938 0.878906 C 1.523438 0.78125 1.636719 0.707031 1.597656 0.582031 C 1.597656 0.582031 1.449219 0.65625 1.351562 0.644531 C 1.238281 0.65625 1.226562 0.644531 1.113281 0.582031 L 1.027344 0.484375 C 1.003906 0.457031 0.953125 0.410156 0.953125 0.320312 C 0.929688 0.234375 0.902344 0.148438 0.917969 0.0625 C 0.917969 0.0117188 0.917969 -0.0234375 0.867188 -0.0390625 C 0.917969 -0.0625 0.878906 -0.0742188 0.855469 -0.0976562 C 0.917969 -0.113281 0.902344 -0.335938 0.855469 -0.394531 C 0.878906 -0.433594 0.902344 -0.484375 0.917969 -0.519531 C 0.890625 -0.53125 0.878906 -0.546875 0.890625 -0.546875 C 0.902344 -0.558594 0.917969 -0.582031 0.917969 -0.605469 C 0.917969 -0.707031 0.929688 -0.792969 0.964844 -0.902344 C 0.953125 -0.941406 0.964844 -1.003906 0.976562 -1.050781 C 0.976562 -1.089844 1.015625 -1.140625 1.015625 -1.164062 C 1.015625 -1.226562 1.050781 -1.300781 1.015625 -1.363281 C 1.039062 -1.398438 1.078125 -1.4375 1.089844 -1.472656 C 1.101562 -1.609375 1.152344 -1.746094 1.1875 -1.882812 C 1.1875 -1.957031 1.226562 -2.03125 1.261719 -2.105469 C 1.277344 -2.21875 1.335938 -2.339844 1.363281 -2.464844 C 1.375 -2.515625 1.398438 -2.5625 1.425781 -2.625 C 1.449219 -2.699219 1.4375 -2.773438 1.472656 -2.859375 C 1.472656 -2.886719 1.460938 -2.910156 1.472656 -2.910156 C 1.546875 -2.933594 1.535156 -2.984375 1.523438 -3.007812 C 1.511719 -3.035156 1.535156 -3.058594 1.535156 -3.082031 C 1.585938 -3.132812 1.621094 -3.21875 1.609375 -3.269531 C 1.636719 -3.308594 1.660156 -3.332031 1.648438 -3.355469 C 1.621094 -3.40625 1.671875 -3.503906 1.722656 -3.53125 L 1.859375 -3.949219 L 1.992188 -3.949219 C 2.105469 -3.964844 2.292969 -3.949219 2.425781 -3.949219 C 2.589844 -3.964844 2.699219 -3.964844 2.761719 -3.964844 C 2.875 -3.964844 2.984375 -3.976562 3.023438 -4 L 3.207031 -4.023438 C 3.234375 -4.039062 3.246094 -4.050781 3.207031 -4.074219 C 2.960938 -4.050781 2.859375 -4.050781 2.378906 -4.039062 L 2.390625 -4.0625 Z M 2.601562 -4.085938 "/></g></g></g><g fill="#ffffff" fill-opacity="1"><g transform="translate(44.452366, 40.959076)"><g><path d="M 0.371094 0.570312 C 0.46875 0.59375 0.519531 0.582031 0.570312 0.484375 C 0.582031 0.46875 0.582031 0.457031 0.605469 0.445312 L 0.644531 0.359375 C 0.707031 0.359375 0.753906 0.320312 0.804688 0.261719 C 0.867188 0.125 1.101562 -0.335938 1.113281 -0.335938 L 1.175781 -0.421875 C 1.152344 -0.421875 1.226562 -0.484375 1.238281 -0.519531 C 1.277344 -0.582031 1.363281 -0.59375 1.351562 -0.695312 C 1.4375 -0.730469 1.5 -0.792969 1.523438 -0.890625 C 1.609375 -0.902344 1.660156 -0.941406 1.695312 -1.078125 C 1.710938 -1.039062 1.734375 -1.027344 1.757812 -1.003906 C 1.757812 -0.929688 1.746094 -0.84375 1.746094 -0.78125 C 1.722656 -0.519531 1.769531 -0.285156 1.832031 -0.0742188 C 1.882812 0.0859375 1.980469 0.199219 2.09375 0.285156 C 2.15625 0.359375 2.191406 0.359375 2.277344 0.394531 L 2.292969 0.394531 C 2.476562 0.359375 2.6875 0.359375 2.859375 0.234375 C 2.972656 0.160156 3.082031 0.0742188 3.15625 -0.0117188 C 3.246094 -0.0976562 3.34375 -0.171875 3.394531 -0.273438 C 3.394531 -0.285156 3.429688 -0.285156 3.441406 -0.296875 C 3.429688 -0.308594 3.429688 -0.335938 3.429688 -0.335938 C 3.492188 -0.371094 3.492188 -0.410156 3.503906 -0.433594 L 3.714844 -0.679688 C 3.765625 -0.71875 3.816406 -0.78125 3.839844 -0.828125 C 3.863281 -0.878906 3.863281 -0.929688 3.890625 -0.992188 L 4 -1.164062 C 4.0625 -1.238281 4.011719 -1.289062 3.9375 -1.289062 L 2.785156 -0.1875 C 2.726562 -0.136719 2.648438 -0.0976562 2.574219 -0.0742188 C 2.367188 0.0390625 2.328125 0.0507812 2.316406 0.0625 L 2.277344 0.0625 C 2.265625 0.0507812 2.230469 0.0117188 2.230469 -0.0117188 L 2.191406 -0.136719 C 2.191406 -0.222656 2.191406 -0.320312 2.179688 -0.410156 C 2.191406 -0.445312 2.179688 -0.484375 2.179688 -0.507812 C 2.191406 -0.605469 2.203125 -0.707031 2.203125 -0.804688 C 2.191406 -0.917969 2.167969 -1.027344 2.128906 -1.140625 C 2.128906 -1.175781 2.140625 -1.214844 2.128906 -1.214844 C 2.082031 -1.238281 2.09375 -1.300781 2.082031 -1.363281 C 1.882812 -1.460938 1.859375 -1.484375 1.820312 -1.484375 C 1.785156 -1.5 1.757812 -1.511719 1.660156 -1.511719 C 1.535156 -1.5 1.523438 -1.5 1.460938 -1.460938 C 1.363281 -1.386719 1.277344 -1.300781 1.203125 -1.214844 C 1.050781 -1.066406 0.917969 -0.890625 0.792969 -0.707031 C 0.792969 -0.695312 0.792969 -0.707031 0.78125 -0.695312 C 0.792969 -0.71875 0.792969 -0.730469 0.792969 -0.742188 C 0.816406 -0.828125 0.855469 -0.902344 0.878906 -0.992188 C 0.902344 -1.078125 0.902344 -1.140625 0.917969 -1.226562 C 0.929688 -1.324219 0.941406 -1.410156 0.964844 -1.511719 C 0.964844 -1.523438 0.964844 -1.523438 0.953125 -1.535156 C 0.867188 -1.660156 0.753906 -1.769531 0.59375 -1.785156 C 0.519531 -1.796875 0.496094 -1.769531 0.484375 -1.683594 C 0.46875 -1.609375 0.457031 -1.535156 0.496094 -1.5 C 0.507812 -1.5 0.507812 -1.472656 0.507812 -1.460938 C 0.484375 -1.3125 0.46875 -1.175781 0.433594 -1.027344 C 0.382812 -0.804688 0.308594 -0.582031 0.246094 -0.371094 C 0.199219 -0.148438 0.171875 0.0507812 0.136719 0.261719 C 0.113281 0.359375 0.296875 0.546875 0.371094 0.570312 Z M 0.371094 0.570312 "/></g></g></g><g fill="#ffffff" fill-opacity="1"><g transform="translate(47.238966, 40.959076)"><g><path d="M 3.257812 -1.214844 C 3.292969 -1.238281 3.320312 -1.277344 3.355469 -1.300781 C 3.355469 -1.3125 3.34375 -1.3125 3.34375 -1.3125 L 3.320312 -1.398438 L 2.898438 -1.089844 C 2.875 -1.066406 2.800781 -1.027344 2.75 -1.003906 C 2.625 -0.929688 2.390625 -0.792969 2.277344 -0.71875 L 2.242188 -0.695312 L 1.832031 -0.457031 C 1.769531 -0.421875 1.710938 -0.421875 1.648438 -0.394531 C 1.546875 -0.359375 1.449219 -0.308594 1.363281 -0.273438 C 1.25 -0.234375 1.140625 -0.1875 1.027344 -0.171875 C 0.867188 -0.148438 0.707031 -0.160156 0.546875 -0.148438 C 0.445312 -0.1875 0.421875 -0.210938 0.371094 -0.359375 C 0.457031 -0.410156 0.496094 -0.421875 0.59375 -0.46875 C 0.621094 -0.496094 0.644531 -0.53125 0.679688 -0.546875 C 0.753906 -0.59375 0.855469 -0.632812 0.941406 -0.679688 C 0.953125 -0.695312 0.953125 -0.730469 0.964844 -0.742188 L 1.140625 -0.867188 C 1.1875 -0.890625 1.277344 -0.902344 1.289062 -0.992188 C 1.300781 -1.027344 1.375 -1.039062 1.410156 -1.078125 C 1.523438 -1.1875 1.636719 -1.300781 1.746094 -1.425781 C 1.785156 -1.460938 1.820312 -1.523438 1.84375 -1.585938 C 1.882812 -1.683594 1.820312 -1.894531 1.722656 -1.957031 C 1.636719 -2.03125 1.535156 -2.105469 1.425781 -2.15625 C 1.335938 -2.203125 1.226562 -2.292969 1.101562 -2.242188 C 1.050781 -2.230469 1.015625 -2.21875 0.976562 -2.21875 C 0.816406 -2.203125 0.679688 -2.128906 0.570312 -2.019531 C 0.457031 -1.894531 0.347656 -1.769531 0.234375 -1.636719 C 0.171875 -1.558594 0.125 -1.484375 0.0742188 -1.410156 C -0.0507812 -1.175781 -0.113281 -0.941406 -0.125 -0.695312 C -0.125 -0.605469 -0.136719 -0.519531 -0.0742188 -0.371094 C -0.0507812 -0.246094 -0.0507812 -0.246094 -0.0234375 -0.222656 C 0.0507812 -0.113281 0.0976562 -0.0390625 0.1875 0.0234375 C 0.199219 0.0390625 0.234375 0.0507812 0.246094 0.0742188 C 0.371094 0.171875 0.421875 0.1875 0.53125 0.222656 C 0.644531 0.261719 0.78125 0.285156 0.902344 0.296875 C 1.003906 0.308594 1.089844 0.285156 1.1875 0.261719 C 1.25 0.246094 1.324219 0.234375 1.375 0.210938 C 1.410156 0.1875 1.4375 0.171875 1.484375 0.171875 C 1.574219 0.160156 1.660156 0.160156 1.734375 0.125 C 1.859375 0.0742188 1.957031 -0.0117188 2.066406 -0.0742188 C 2.15625 -0.136719 2.230469 -0.1875 2.328125 -0.234375 L 2.5625 -0.421875 C 2.613281 -0.457031 2.675781 -0.507812 2.726562 -0.558594 C 2.738281 -0.570312 2.785156 -0.621094 2.800781 -0.65625 L 2.800781 -0.667969 C 2.8125 -0.753906 2.859375 -0.78125 2.910156 -0.816406 C 2.875 -0.855469 2.898438 -0.878906 2.949219 -0.902344 L 2.984375 -0.953125 C 3.046875 -0.992188 3.046875 -1.027344 3.070312 -1.050781 Z M 0.445312 -1.113281 C 0.519531 -1.261719 0.605469 -1.410156 0.707031 -1.546875 C 0.792969 -1.660156 0.902344 -1.722656 1.015625 -1.808594 C 1.113281 -1.882812 1.226562 -1.882812 1.335938 -1.933594 C 1.386719 -1.957031 1.449219 -1.84375 1.410156 -1.785156 C 1.363281 -1.695312 1.3125 -1.621094 1.238281 -1.558594 L 0.902344 -1.261719 L 0.570312 -0.992188 C 0.519531 -0.953125 0.457031 -0.917969 0.359375 -0.855469 C 0.382812 -0.953125 0.410156 -1.039062 0.445312 -1.113281 Z M 0.445312 -1.113281 "/></g></g></g><g fill="#ffffff" fill-opacity="1"><g transform="translate(49.938872, 40.959076)"><g><path d="M 0.273438 0.222656 C 0.371094 0.261719 0.421875 0.234375 0.445312 0.0859375 C 0.46875 0 0.46875 -0.0859375 0.496094 -0.171875 C 0.53125 -0.285156 0.546875 -0.394531 0.59375 -0.519531 C 0.667969 -0.667969 0.769531 -0.804688 0.84375 -0.976562 C 0.929688 -1.128906 1.027344 -1.25 1.113281 -1.375 L 1.351562 -1.683594 C 1.410156 -1.746094 1.484375 -1.808594 1.558594 -1.871094 C 1.585938 -1.90625 1.609375 -1.957031 1.648438 -1.96875 C 1.722656 -2.019531 1.796875 -2.042969 1.84375 -2.105469 C 1.917969 -2.167969 1.992188 -2.15625 2.066406 -2.15625 C 2.230469 -2.082031 2.304688 -2.117188 2.304688 -2.117188 L 2.316406 -2.179688 C 2.292969 -2.242188 2.265625 -2.292969 2.21875 -2.328125 C 2.191406 -2.328125 2.179688 -2.351562 2.167969 -2.367188 C 2.117188 -2.414062 2.054688 -2.464844 1.992188 -2.515625 C 1.84375 -2.601562 1.671875 -2.601562 1.511719 -2.476562 C 1.375 -2.390625 1.238281 -2.292969 1.128906 -2.128906 C 1.039062 -2.042969 0.964844 -1.980469 0.902344 -1.871094 C 0.890625 -1.832031 0.84375 -1.796875 0.804688 -1.746094 C 0.804688 -1.808594 0.828125 -1.84375 0.828125 -1.882812 C 0.84375 -1.992188 0.828125 -2.105469 0.792969 -2.203125 C 0.742188 -2.390625 0.644531 -2.453125 0.519531 -2.402344 C 0.484375 -2.402344 0.433594 -2.378906 0.410156 -2.339844 C 0.394531 -2.328125 0.394531 -2.277344 0.382812 -2.253906 C 0.359375 -2.082031 0.320312 -1.917969 0.296875 -1.746094 C 0.273438 -1.585938 0.210938 -1.410156 0.1875 -1.238281 C 0.1875 -1.101562 0.136719 -0.964844 0.113281 -0.828125 L 0.0117188 -0.320312 C -0.0234375 -0.160156 0.0390625 -0.0390625 0.0859375 0.0859375 C 0.1875 0.136719 0.199219 0.1875 0.273438 0.222656 Z M 0.273438 0.222656 "/></g></g></g></svg>