<?xml version="1.0" encoding="UTF-8"?><svg id="Layer_1" xmlns="http://www.w3.org/2000/svg" viewBox="0 0 500 500"><path d="m297.73,340.56c-.08-.5-.16-1-.25-1.51.43.26.85.52,1.28.78-.34.24-.69.48-1.03.73Z" fill="#dce3ff"/><path d="m304.69,311.84c-.7,5.12-1.4,10.24-2.24,16.33-1.77,0-4.04-.08-6.31.01-9.75.42-19.55.45-29.24,1.48-6.99.74-12.28,5.2-16.56,10.71-.34.33-.68.67-1.02,1,0,0,0,0,0,0-.91,1.36-1.83,2.71-2.74,4.07-1.11,7.47-2.22,14.93-3.46,23.24-14.75,0-30.24,0-45.72,0-.34-2.66-.97-5.33-.97-7.99-.06-53.62-.04-107.23-.04-160.85,2.58-.54,5.16-1.07,8.14-1.69-1.16-8.14-3.09-15.61-10.17-20.65,0-.35-.01-.71-.02-1.06,0,0,0,0,0,0,1.02-2.28,2.91-4.56,2.93-6.85.2-28.47.18-56.94.09-85.41-.02-4.87-.63-9.74-.97-14.6h3.05c1.69,2.5,3.47,4.45,6.11.97,1.02,0,2.03.01,3.05.02,4.06,4.27,9.27,3.12,14.26,3.03l4.06,1.04c1.54,4.18,4.32,5.02,8.16,3.03,1.01.35,2.03.7,3.04,1.05.82,3.46,2.59,5,6.11,3.05,1.02.67,2.04,1.35,3.06,2.02,2.07,5.01,6.34,6.55,11.22,7.13.67.35,1.33.69,2,1.04.68.67,1.37,1.33,2.05,2,1.01.69,2.02,1.38,3.04,2.07,2.71,3.89,4.96,8.22,8.21,11.59,7.74,8.05,14.23,16.77,18.54,27.17,1.24,2.98,3.85,5.39,5.83,8.07.35,1.01.7,2.02,1.05,3.04-3.51,3.57-1.54,5.58,2.02,7.14.67,2.61,1.81,5.19,1.94,7.82.52,10.28.72,20.58,1.05,30.87-.55.3-1.57.59-1.58.91-.08,3.05,5.58,9.61,8.73,10.28l1.09,2.01c-2.41,3.81.37,3.89,2.95,4.1.36.68.72,1.35,1.08,2.03-1.21,3.5,2.17,8.79,7.15,11.19.35.67.71,1.33,1.06,2-1.98,4.12,1.1,6.48,3.3,8.98,4.94,5.62,4.47,8.05-2.22,11.44-6.68,3.38-11.69,8.57-14.81,14.9-2.6,5.27-6.14,6.5-11.15,6.49-11.69-.03-23.38-.01-35.06,0-3.05,0-6.12-.17-9.14.11-1.08.1-2.06,1.32-3.08,2.02.59.64,1.19,1.29,1.78,1.93.02,6.11.04,12.22.06,18.33-1.17,3.79,1.72,3,3.57,3.02,11.09.07,22.19.12,33.28-.01,3.99-.05,7.97-.63,11.96-.97.4,6.14.79,12.27,1.19,18.41.1.99.2,1.97.29,2.96Zm-60.45-121.98c0,5.4-.3,10.3.18,15.12.14,1.46,2.33,3.73,3.76,3.87,4.95.48,9.98.19,15.09.19v-19.17h-19.02Z" fill="#ffbfab"/><path d="m144.38,364.79c-.63-5.43-1.27-10.87-1.9-16.3-.01-1.01-.03-2.03-.04-3.04-.31-1.03-.61-2.06-.92-3.09,0,0-.18.06-.18.06.02-1.03.04-2.06.06-3.08-1.08-6.13-1.84-12.33-3.28-18.37-6.86-28.79-18.29-55.56-34.49-80.44-9.14-14.03-15.97-29.3-17.32-46.43-.06-.81-.55-1.59-.85-2.38-.33-1.04-.66-2.08-.99-3.12-1-18.35,2.41-36.09,9.53-52.77,7.16-16.76,17.98-31.18,32.57-42.59,12.25-9.58,25.77-16.6,40.75-20.42,7.43-1.89,15.26-2.23,22.91-3.27,1.36.02,2.73.03,4.09.05,0,35.62.02,71.23.02,106.85,0,0,0,0,0,0-.78-.29-1.69-.4-2.31-.9-8.6-6.89-18.1-7.83-28.14-4.06-18.09,6.79-24.82,28.57-14.51,43.59,6.75,9.83,13.51,19.33,15.34,31.46.17,1.15,1.53,2.99,2.41,3.04,5.51.28,11.05.14,17.21.14-.29-3.63-.38-6.46-.75-9.26-1.74-13.22-8.6-24.06-16.25-34.48-4.09-5.58-3.52-11.95,2.28-15.22,4.29-2.41,10.63-2.41,13.8,4.83,1.17,2.67,2.6,3.58,5.32,3.3,1.85-.19,3.73-.03,5.59-.03.03.31.06.63.08.94,0,56.3,0,112.61-.01,168.91-15.34.05-30.69.14-46.03.05-1.32,0-2.64-1.26-3.96-1.93-.01-.68-.03-1.36-.04-2.03Z" fill="#ffcebf"/><path d="m324.74,224.24c-.35-.67-.71-1.33-1.06-2-2.38-3.73-4.77-7.46-7.15-11.19-.36-.68-.72-1.35-1.08-2.03-.98-1.37-1.97-2.74-2.95-4.1-.36-.67-.72-1.34-1.09-2.01-2.38-3.73-4.77-7.46-7.15-11.19-.32-10.29-.52-20.59-1.05-30.87-.13-2.63-1.27-5.22-1.94-7.82-.67-2.38-1.35-4.76-2.02-7.14-.35-1.01-.7-2.02-1.05-3.04-3.23-11.18-9.35-20.81-16.26-29.99-2.7-3.59-5.5-7.12-8.25-10.67.03-24.06.06-48.12.09-72.18,16.04-.15,31.22,3.46,45.82,10.04,20.68,9.32,36.89,23.75,48.53,43.05,9.69,16.06,16.85,33.37,15.1,52.52-1.18,12.92,3.98,22.66,10.83,32.54,7.39,10.66,14.17,21.76,21.63,33.31-12.96,6.13-22.46,15.37-28.47,28.01-10-.03-19.99.02-29.99-.14-3.06-.05-4.3.93-4.12,4.07.2,3.72.24,7.47,0,11.18-.24,3.52,1.36,4.27,4.51,4.21,8.3-.17,16.6-.08,24.9-.09.26.44.74.87.74,1.31.04,12.62.03,25.24.03,38.48-2.52,0-4.67-.03-6.81,0-16.37.31-32.74.6-49.1.99-1.26.03-2.51.74-3.77,1.14-.4.27-.81.54-1.21.81-8.16,2.18-12.8,8.09-16.23,15.29-.59.72-1.17,1.45-1.76,2.17-.4-6.14-.79-12.27-1.19-18.41,0-.67.02-1.34.03-2.01,1.37-6.45,2.75-12.9,4.12-19.35.91-1.17,2.02-2.24,2.7-3.54,4.06-7.78,9.44-14.31,17.06-18.87,2.88-1.72,5.65-3.61,9.28-5.93-3.99-5.66-7.83-11.09-11.66-16.53Zm18.02-73.89h-19.87v18.69h19.87v-18.69Z" fill="#f89580"/><path d="m194.34,69.59c-1.36-.02-2.73-.03-4.09-.05.4-.89.8-1.78,1.21-2.67.66-.79,1.33-1.59,2-2.38,7.35-5.89,14.31-12.35,22.12-17.54,14.06-9.34,29.52-15.3,46.65-16.12,2.16-.1,4.3-.5,6.45-.76,0,22.66,0,45.32,0,67.98l-3.06-2.02c-1.01-.69-2.02-1.38-3.04-2.07-.68-.67-1.37-1.33-2.05-2-.67-.35-1.33-.69-2-1.04-3.74-2.38-7.48-4.75-11.22-7.13-1.02-.67-2.04-1.35-3.06-2.02-2.04-1.02-4.07-2.03-6.11-3.05-1.01-.35-2.03-.7-3.04-1.05-2.72-1.01-5.44-2.02-8.16-3.03-1.35-.35-2.71-.69-4.06-1.04-4.75-1.01-9.51-2.02-14.26-3.03-1.02,0-2.03-.01-3.05-.02-2.04-.32-4.08-.65-6.11-.97-1.02,0-2.04,0-3.05,0-.69,0-1.38.01-2.06.02Z" fill="#ffa78f"/><path d="m382.51,248.69c-8.3.01-16.61-.08-24.9.09-3.15.07-4.74-.68-4.51-4.21.25-3.71.21-7.46,0-11.18-.17-3.14,1.06-4.13,4.12-4.07,9.99.17,19.99.11,29.99.14-1.57,6.41-3.14,12.82-4.71,19.23Z" fill="#f47b67"/><path d="m268.67,98.05c0-22.66,0-45.32,0-67.98,1.71-.02,3.41-.04,5.12-.07-.03,24.06-.06,48.12-.09,72.18-1.68-1.38-3.35-2.76-5.03-4.14Z" fill="#ffa78f"/><path d="m194.41,368.71c0-56.3,0-112.61.01-168.91.66.01,1.32.03,1.98.04,0,53.62-.01,107.23.04,160.85,0,2.67.63,5.33.97,7.99-1,0-2,.02-3,.03Z" fill="#ffc0ac"/><path d="m304.4,308.88c.59-.72,1.17-1.45,1.76-2.17,3,1.99,2.75,2.88-1.47,5.13-.09-.99-.19-1.97-.29-2.96Z" fill="#fffefd"/><path d="m246.59,345.44c.91-1.36,1.83-2.71,2.74-4.07-.91,1.36-1.83,2.71-2.74,4.07Z" fill="#fffdfd"/><path d="m141.53,342.36c.31,1.03.61,2.06.92,3.09-.33,0-.65-.02-.98-.05.02-1.01.04-2.03.06-3.04Z" fill="#ffd0c2"/><path d="m141.41,339.34c-.02,1.03-.04,2.06-.06,3.08-.59-.61-1.18-1.21-1.76-1.82.61-.42,1.22-.84,1.83-1.26Z" fill="#fffefd"/><path d="m141.46,345.4c.33.03.65.05.98.05.01,1.01.03,2.03.04,3.04-.34-1.03-.68-2.06-1.02-3.09Z" fill="#fffefd"/><path d="m84.48,188.6c.33,1.04.66,2.08.99,3.12-.33-1.04-.66-2.08-.99-3.12Z" fill="#fffefd"/><path d="m144.38,364.79c.01.68.03,1.36.04,2.03-.51-.41-1.03-.82-1.54-1.23.5-.27,1-.54,1.5-.81Z" fill="#fffefd"/><path d="m193.45,64.49c-.67.79-1.33,1.59-2,2.38.67-.79,1.33-1.59,2-2.38Z" fill="#fffdfd"/><path d="m249.33,341.37c.34-.33.68-.67,1.02-1-.34.33-.68.67-1.02,1Z" fill="#fffdfd"/><path d="m322.38,291.42c.4-.27.81-.54,1.21-.81-.4.27-.81.54-1.21.81Z" fill="#fffefd"/><path d="m194.35,198.86c-1.87,0-3.75-.16-5.59.03-2.72.28-4.15-.63-5.32-3.3-3.17-7.24-9.51-7.24-13.8-4.83-5.81,3.27-6.37,9.64-2.28,15.22,7.65,10.43,14.51,21.27,16.25,34.48.37,2.79.47,5.62.75,9.26-6.16,0-11.69.14-17.21-.14-.88-.04-2.24-1.88-2.41-3.04-1.82-12.13-8.59-21.63-15.34-31.46-10.3-15.01-3.58-36.79,14.51-43.59,10.04-3.77,19.54-2.83,28.14,4.06.61.49,1.53.61,2.31.9,0,.35.01.71.02,1.06-.01,7.12-.02,14.24-.03,21.36Z" fill="#ffbfab"/><path d="m307.36,269.12c-1.37,6.45-2.75,12.9-4.12,19.35-16.28,0-32.56-.02-48.83-.03-.02-6.11-.04-12.22-.06-18.33,1.59-.34,3.18-.97,4.77-.98,16.08-.06,32.17-.02,48.25-.01Z" fill="#ffa78f"/><path d="m244.24,189.87h19.02v19.17c-5.1,0-10.13.29-15.09-.19-1.42-.14-3.61-2.41-3.76-3.87-.48-4.82-.18-9.72-.18-15.12Z" fill="#5b5555"/><path d="m194.34,69.59c.69,0,1.38-.01,2.06-.02.34,4.87.96,9.74.97,14.6.09,28.47.12,56.94-.09,85.41-.02,2.29-1.91,4.57-2.93,6.85,0-35.62-.02-71.23-.02-106.85Z" fill="#ffbfab"/><path d="m307.36,269.12c-16.08-.01-32.17-.05-48.25.01-1.59,0-3.18.64-4.77.98-.59-.64-1.19-1.29-1.78-1.93,1.02-.71,2-1.92,3.08-2.02,3.02-.28,6.09-.11,9.14-.11,11.69,0,23.38-.02,35.06,0,5.01.01,8.56-1.22,11.15-6.49,3.12-6.33,8.13-11.52,14.81-14.9,6.7-3.39,7.16-5.81,2.22-11.44-2.2-2.5-5.28-4.86-3.3-8.98,3.84,5.43,7.67,10.87,11.66,16.53-3.63,2.33-6.4,4.21-9.28,5.93-7.62,4.56-13,11.09-17.06,18.87-.68,1.3-1.79,2.36-2.7,3.54Z" fill="#ffbeaa"/><path d="m194.35,198.86c.01-7.12.02-14.24.03-21.36,7.08,5.03,9.01,12.51,10.17,20.65-2.98.62-5.56,1.16-8.14,1.69-.66-.01-1.32-.03-1.98-.04-.02-.32-.04-.63-.07-.94Z" fill="#ffa78f"/><path d="m254.41,288.44c16.28,0,32.56.02,48.83.03,0,.67-.02,1.34-.03,2.01-3.99.34-7.97.92-11.96.97-11.09.13-22.19.08-33.28.01-1.85-.01-4.74.77-3.57-3.02Z" fill="#ffbeaa"/><path d="m268.67,98.05c1.68,1.38,3.35,2.76,5.03,4.14,2.75,3.56,5.54,7.08,8.25,10.67,6.91,9.19,13.02,18.81,16.26,29.99-1.98-2.67-4.6-5.08-5.83-8.07-4.31-10.39-10.8-19.12-18.54-27.17-3.24-3.38-5.5-7.7-8.21-11.59,1.02.67,2.04,1.35,3.06,2.02Z" fill="#ffbeaa"/><path d="m304.25,191.72c2.38,3.73,4.77,7.46,7.15,11.19-3.15-.67-8.82-7.23-8.73-10.28,0-.32,1.03-.61,1.58-.91Z" fill="#ffbeaa"/><path d="m247.3,83.79c3.74,2.38,7.48,4.75,11.22,7.13-4.88-.58-9.15-2.12-11.22-7.13Z" fill="#ffbeaa"/><path d="m316.52,211.05c2.38,3.73,4.77,7.46,7.15,11.19-4.98-2.4-8.36-7.69-7.15-11.19Z" fill="#ffbeaa"/><path d="m208.62,70.57c4.75,1.01,9.51,2.02,14.26,3.03-4.99.09-10.2,1.23-14.26-3.03Z" fill="#ffbeaa"/><path d="m226.94,74.64c2.72,1.01,5.44,2.02,8.16,3.03-3.83,1.99-6.61,1.15-8.16-3.03Z" fill="#ffbeaa"/><path d="m299.24,145.89c.67,2.38,1.35,4.76,2.02,7.14-3.56-1.56-5.53-3.58-2.02-7.14Z" fill="#ffbeaa"/><path d="m238.13,78.72c2.04,1.02,4.07,2.03,6.11,3.05-3.52,1.96-5.29.41-6.11-3.05Z" fill="#ffbeaa"/><path d="m199.46,69.57c2.04.32,4.08.65,6.11.97-2.64,3.48-4.42,1.53-6.11-.97Z" fill="#ffbeaa"/><path d="m312.49,204.92c.98,1.37,1.97,2.74,2.95,4.1-2.58-.22-5.37-.29-2.95-4.1Z" fill="#ffbeaa"/><path d="m260.52,91.95c.68.67,1.37,1.33,2.05,2-.68-.67-1.37-1.33-2.05-2Z" fill="#ffbeaa"/><path d="m342.75,150.35v18.69h-19.87v-18.69h19.87Z" fill="#463f3f"/><path d="m53.39,457.32c-6.28,0-11.88-2.66-16.82-7.99-4.93-5.33-7.4-11.93-7.4-19.82s2.4-14.35,7.2-19.38c4.8-5.03,10.42-7.54,16.87-7.54s11.7,2.27,15.78,6.8v-26.04h14.79v73.18h-14.79v-7c-4.14,5.2-9.35,7.79-15.63,7.79Zm-9.32-27.22c0,4.27,1.28,7.78,3.85,10.5s5.56,4.09,8.98,4.09,6.33-1.36,8.73-4.09c2.4-2.73,3.6-6.25,3.6-10.55s-1.2-7.89-3.6-10.75c-2.4-2.86-5.34-4.29-8.83-4.29s-6.48,1.45-8.98,4.34c-2.5,2.89-3.75,6.48-3.75,10.75Z" fill="#fff"/><path d="m115.48,414.13v23.77c0,2.04.53,3.63,1.58,4.78,1.05,1.15,2.3,1.73,3.75,1.73,2.76,0,5.09-1.25,7-3.75l5.52,10.36c-4.6,4.21-9.45,6.31-14.55,6.31s-9.4-1.68-12.92-5.03c-3.52-3.35-5.28-7.92-5.28-13.71v-24.46h-6.21v-10.65h6.21v-15.88h14.89v15.88h12.82v10.65h-12.82Z" fill="#fff"/><path d="m187.18,448.84c-5.98,5.66-13,8.48-21.06,8.48s-14.71-2.48-19.97-7.45c-5.26-4.96-7.89-11.62-7.89-19.97s2.68-14.99,8.04-19.92c5.36-4.93,11.69-7.4,18.99-7.4s13.49,2.2,18.59,6.61c5.09,4.41,7.64,10.45,7.64,18.15v7.89h-38.66c.46,2.89,1.97,5.26,4.54,7.1,2.56,1.84,5.46,2.76,8.68,2.76,5.19,0,9.47-1.74,12.82-5.23l8.28,8.98Zm-14.2-31.46c-2.04-1.71-4.52-2.56-7.45-2.56s-5.61.89-8.04,2.66c-2.43,1.78-3.85,4.18-4.24,7.2h23.28c-.33-3.16-1.51-5.59-3.55-7.3Z" fill="#fff"/><path d="m216.96,456.54h-14.79v-73.18h14.79v37.58l16.47-17.55h18.64l-20.22,21.5,21.01,31.66h-17.56l-13.51-20.32-4.83,5.03v15.29Z" fill="#fff"/><path d="m299.71,440.02c0,5.23-1.92,9.42-5.77,12.57s-8.73,4.73-14.65,4.73c-3.95,0-8.05-.71-12.33-2.12-4.28-1.41-8.12-3.5-11.54-6.26l6.51-9.27c5.52,4.28,11.41,6.41,17.65,6.41,1.91,0,3.42-.38,4.54-1.13,1.12-.75,1.68-1.76,1.68-3.01s-.77-2.4-2.32-3.45c-1.54-1.05-3.78-2.04-6.71-2.96-2.93-.92-5.16-1.71-6.71-2.37-1.55-.66-3.3-1.61-5.28-2.86-4.01-2.5-6.02-6.2-6.02-11.1s1.97-8.89,5.92-11.98c3.95-3.09,9.04-4.63,15.29-4.63s12.49,2.1,18.74,6.31l-5.52,9.86c-4.6-3.16-9.19-4.73-13.76-4.73s-6.85,1.25-6.85,3.75c0,1.38.72,2.46,2.17,3.25,1.45.79,3.85,1.71,7.2,2.76,3.35,1.05,5.73,1.86,7.15,2.42,1.41.56,3.11,1.43,5.08,2.61,3.68,2.24,5.52,5.97,5.52,11.19Z" fill="#fff"/><path d="m325.84,456.54h-14.79v-73.18h14.79v37.58l16.47-17.55h18.64l-20.22,21.5,21.01,31.66h-17.56l-13.51-20.32-4.83,5.03v15.29Z" fill="#fff"/><path d="m370.96,396.72c-1.68-1.68-2.51-3.73-2.51-6.17s.84-4.49,2.51-6.16,3.73-2.51,6.16-2.51,4.49.84,6.16,2.51,2.51,3.73,2.51,6.16-.84,4.49-2.51,6.17c-1.68,1.68-3.73,2.51-6.16,2.51s-4.49-.84-6.16-2.51Zm13.56,59.82h-14.79v-53.06h14.79v53.06Z" fill="#fff"/><path d="m413.32,456.54h-14.79v-73.18h14.79v73.18Z" fill="#fff"/><path d="m426.34,415.7v-12.23h42.8v11.54l-25.74,29.19h27.22v12.33h-46.16v-12.23l25.05-28.6h-23.18Z" fill="#fff"/></svg>