<?xml version="1.0" encoding="utf-8"?>
<!-- Generator: Adobe Illustrator 27.6.1, SVG Export Plug-In . SVG Version: 6.00 Build 0)  -->
<svg version="1.1" id="Layer_1" xmlns="http://www.w3.org/2000/svg" xmlns:xlink="http://www.w3.org/1999/xlink" x="0px" y="0px"
	 viewBox="0 0 500 500" style="enable-background:new 0 0 500 500;" xml:space="preserve">
<style type="text/css">
	.st0{fill:#DCE3FF;}
	.st1{fill:#FFBFAB;}
	.st2{fill:#FFCEBF;}
	.st3{fill:#F89580;}
	.st4{fill:#FFA78F;}
	.st5{fill:#F47B67;}
	.st6{fill:#FFC0AC;}
	.st7{fill:#FFFEFD;}
	.st8{fill:#FFFDFD;}
	.st9{fill:#FFD0C2;}
	.st10{fill:#5B5555;}
	.st11{fill:#FFBEAA;}
	.st12{fill:#463F3F;}
	.st13{fill:#0072BC;}
</style>
<path class="st0" d="M297.73,340.56c-0.08-0.5-0.16-1-0.25-1.51c0.43,0.26,0.85,0.52,1.28,0.78
	C298.42,340.08,298.07,340.32,297.73,340.56z"/>
<g>
	<path class="st1" d="M304.69,311.84c-0.7,5.12-1.4,10.24-2.24,16.33c-1.77,0-4.04-0.08-6.31,0.01c-9.75,0.42-19.55,0.45-29.24,1.48
		c-6.99,0.74-12.28,5.2-16.56,10.71c-0.34,0.33-0.68,0.67-1.02,1c0,0,0,0,0,0c-0.91,1.36-1.83,2.71-2.74,4.07
		c-1.11,7.47-2.22,14.93-3.46,23.24c-14.75,0-30.24,0-45.72,0c-0.34-2.66-0.97-5.33-0.97-7.99c-0.06-53.62-0.04-107.23-0.04-160.85
		c2.58-0.54,5.16-1.07,8.14-1.69c-1.16-8.14-3.09-15.61-10.17-20.65c-0.01-0.35-0.01-0.71-0.02-1.06c0,0,0,0,0,0
		c1.02-2.28,2.91-4.56,2.93-6.85c0.2-28.47,0.18-56.94,0.09-85.41c-0.02-4.87-0.63-9.74-0.97-14.6c1.02,0,2.04,0,3.05,0
		c1.69,2.5,3.47,4.45,6.11,0.97c1.02,0.01,2.03,0.01,3.05,0.02c4.06,4.27,9.27,3.12,14.26,3.03c1.35,0.35,2.71,0.69,4.06,1.04
		c1.54,4.18,4.32,5.02,8.16,3.03c1.01,0.35,2.03,0.7,3.04,1.05c0.82,3.46,2.59,5,6.11,3.05c1.02,0.67,2.04,1.35,3.06,2.02
		c2.07,5.01,6.34,6.55,11.22,7.13c0.67,0.35,1.33,0.69,2,1.04c0.68,0.67,1.37,1.33,2.05,2c1.01,0.69,2.02,1.38,3.04,2.07
		c2.71,3.89,4.96,8.22,8.21,11.59c7.74,8.05,14.23,16.77,18.54,27.17c1.24,2.98,3.85,5.39,5.83,8.07c0.35,1.01,0.7,2.02,1.05,3.04
		c-3.51,3.57-1.54,5.58,2.02,7.14c0.67,2.61,1.81,5.19,1.94,7.82c0.52,10.28,0.72,20.58,1.05,30.87c-0.55,0.3-1.57,0.59-1.58,0.91
		c-0.08,3.05,5.58,9.61,8.73,10.28c0.36,0.67,0.72,1.34,1.09,2.01c-2.41,3.81,0.37,3.89,2.95,4.1c0.36,0.68,0.72,1.35,1.08,2.03
		c-1.21,3.5,2.17,8.79,7.15,11.19c0.35,0.67,0.71,1.33,1.06,2c-1.98,4.12,1.1,6.48,3.3,8.98c4.94,5.62,4.47,8.05-2.22,11.44
		c-6.68,3.38-11.69,8.57-14.81,14.9c-2.6,5.27-6.14,6.5-11.15,6.49c-11.69-0.03-23.38-0.01-35.06-0.01c-3.05,0-6.12-0.17-9.14,0.11
		c-1.08,0.1-2.06,1.32-3.08,2.02c0.59,0.64,1.19,1.29,1.78,1.93c0.02,6.11,0.04,12.22,0.06,18.33c-1.17,3.79,1.72,3,3.57,3.02
		c11.09,0.07,22.19,0.12,33.28-0.01c3.99-0.05,7.97-0.63,11.96-0.97c0.4,6.14,0.79,12.27,1.19,18.41
		C304.5,309.87,304.6,310.86,304.69,311.84z M244.24,189.87c0,5.4-0.3,10.3,0.18,15.12c0.14,1.46,2.33,3.73,3.76,3.87
		c4.95,0.48,9.98,0.19,15.09,0.19c0-6.73,0-12.86,0-19.17C256.94,189.87,250.93,189.87,244.24,189.87z"/>
	<path class="st2" d="M144.38,364.79c-0.63-5.43-1.27-10.87-1.9-16.3c-0.01-1.01-0.03-2.03-0.04-3.04
		c-0.31-1.03-0.61-2.06-0.92-3.09c0,0-0.18,0.06-0.18,0.06c0.02-1.03,0.04-2.06,0.06-3.08c-1.08-6.13-1.84-12.33-3.28-18.37
		c-6.86-28.79-18.29-55.56-34.49-80.44c-9.14-14.03-15.97-29.3-17.32-46.43c-0.06-0.81-0.55-1.59-0.85-2.38
		c-0.33-1.04-0.66-2.08-0.99-3.12c-1-18.35,2.41-36.09,9.53-52.77c7.16-16.76,17.98-31.18,32.57-42.59
		c12.25-9.58,25.77-16.6,40.75-20.42c7.43-1.89,15.26-2.23,22.91-3.27c1.36,0.02,2.73,0.03,4.09,0.05
		c0.01,35.62,0.02,71.23,0.02,106.85c0,0,0,0,0,0c-0.78-0.29-1.69-0.4-2.31-0.9c-8.6-6.89-18.1-7.83-28.14-4.06
		c-18.09,6.79-24.82,28.57-14.51,43.59c6.75,9.83,13.51,19.33,15.34,31.46c0.17,1.15,1.53,2.99,2.41,3.04
		c5.51,0.28,11.05,0.14,17.21,0.14c-0.29-3.63-0.38-6.46-0.75-9.26c-1.74-13.22-8.6-24.06-16.25-34.48
		c-4.09-5.58-3.52-11.95,2.28-15.22c4.29-2.41,10.63-2.41,13.8,4.83c1.17,2.67,2.6,3.58,5.32,3.3c1.85-0.19,3.73-0.03,5.59-0.03
		c0.03,0.31,0.06,0.63,0.08,0.94c0,56.3-0.01,112.61-0.01,168.91c-15.34,0.05-30.69,0.14-46.03,0.05c-1.32-0.01-2.64-1.26-3.96-1.93
		C144.41,366.15,144.4,365.47,144.38,364.79z"/>
	<path class="st3" d="M324.74,224.24c-0.35-0.67-0.71-1.33-1.06-2c-2.38-3.73-4.77-7.46-7.15-11.19c-0.36-0.68-0.72-1.35-1.08-2.03
		c-0.98-1.37-1.97-2.74-2.95-4.1c-0.36-0.67-0.72-1.34-1.09-2.01c-2.38-3.73-4.77-7.46-7.15-11.19
		c-0.32-10.29-0.52-20.59-1.05-30.87c-0.13-2.63-1.27-5.22-1.94-7.82c-0.67-2.38-1.35-4.76-2.02-7.14c-0.35-1.01-0.7-2.02-1.05-3.04
		c-3.23-11.18-9.35-20.81-16.26-29.99c-2.7-3.59-5.5-7.12-8.25-10.67c0.03-24.06,0.06-48.12,0.09-72.18
		c16.04-0.15,31.22,3.46,45.82,10.04c20.68,9.32,36.89,23.75,48.53,43.05c9.69,16.06,16.85,33.37,15.1,52.52
		c-1.18,12.92,3.98,22.66,10.83,32.54c7.39,10.66,14.17,21.76,21.63,33.31c-12.96,6.13-22.46,15.37-28.47,28.01
		c-10-0.03-19.99,0.02-29.99-0.14c-3.06-0.05-4.3,0.93-4.12,4.07c0.2,3.72,0.24,7.47-0.01,11.18c-0.24,3.52,1.36,4.27,4.51,4.21
		c8.3-0.17,16.6-0.08,24.9-0.09c0.26,0.44,0.74,0.87,0.74,1.31c0.04,12.62,0.03,25.24,0.03,38.48c-2.52,0-4.67-0.03-6.81,0.01
		c-16.37,0.31-32.74,0.6-49.1,0.99c-1.26,0.03-2.51,0.74-3.77,1.14c-0.4,0.27-0.81,0.54-1.21,0.81c-8.16,2.18-12.8,8.09-16.23,15.29
		c-0.59,0.72-1.17,1.45-1.76,2.17c-0.4-6.14-0.79-12.27-1.19-18.41c0.01-0.67,0.02-1.34,0.03-2.01c1.37-6.45,2.75-12.9,4.12-19.35
		c0.91-1.17,2.02-2.24,2.7-3.54c4.06-7.78,9.44-14.31,17.06-18.87c2.88-1.72,5.65-3.61,9.28-5.93
		C332.41,235.12,328.57,229.68,324.74,224.24z M342.75,150.35c-6.93,0-13.4,0-19.87,0c0,6.4,0,12.41,0,18.69c6.72,0,13.19,0,19.87,0
		C342.75,162.72,342.75,156.71,342.75,150.35z"/>
	<path class="st4" d="M194.34,69.59c-1.36-0.02-2.73-0.03-4.09-0.05c0.4-0.89,0.8-1.78,1.21-2.67c0.66-0.79,1.33-1.59,2-2.38
		c7.35-5.89,14.31-12.35,22.12-17.54c14.06-9.34,29.52-15.3,46.65-16.12c2.16-0.1,4.3-0.5,6.45-0.76c0,22.66,0,45.32,0,67.98
		c-1.02-0.67-2.04-1.35-3.06-2.02c-1.01-0.69-2.02-1.38-3.04-2.07c-0.68-0.67-1.37-1.33-2.05-2c-0.67-0.35-1.33-0.69-2-1.04
		c-3.74-2.38-7.48-4.75-11.22-7.13c-1.02-0.67-2.04-1.35-3.06-2.02c-2.04-1.02-4.07-2.03-6.11-3.05c-1.01-0.35-2.03-0.7-3.04-1.05
		c-2.72-1.01-5.44-2.02-8.16-3.03c-1.35-0.35-2.71-0.69-4.06-1.04c-4.75-1.01-9.51-2.02-14.26-3.03c-1.02-0.01-2.03-0.01-3.05-0.02
		c-2.04-0.32-4.08-0.65-6.11-0.97c-1.02,0-2.04,0-3.05,0C195.71,69.58,195.02,69.59,194.34,69.59z"/>
	<path class="st5" d="M382.51,248.69c-8.3,0.01-16.61-0.08-24.9,0.09c-3.15,0.07-4.74-0.68-4.51-4.21
		c0.25-3.71,0.21-7.46,0.01-11.18c-0.17-3.14,1.06-4.13,4.12-4.07c9.99,0.17,19.99,0.11,29.99,0.14
		C385.65,235.88,384.08,242.28,382.51,248.69z"/>
	<path class="st4" d="M268.67,98.05c0-22.66,0-45.32,0-67.98c1.71-0.02,3.41-0.04,5.12-0.07c-0.03,24.06-0.06,48.12-0.09,72.18
		C272.02,100.81,270.35,99.43,268.67,98.05z"/>
	<path class="st6" d="M194.41,368.71c0-56.3,0.01-112.61,0.01-168.91c0.66,0.01,1.32,0.03,1.98,0.04
		c0,53.62-0.01,107.23,0.04,160.85c0,2.67,0.63,5.33,0.97,7.99C196.41,368.69,195.41,368.7,194.41,368.71z"/>
	<path class="st7" d="M304.4,308.88c0.59-0.72,1.17-1.45,1.76-2.17c3,1.99,2.75,2.88-1.47,5.13
		C304.6,310.86,304.5,309.87,304.4,308.88z"/>
	<path class="st8" d="M246.59,345.44c0.91-1.36,1.83-2.71,2.74-4.07C248.42,342.73,247.5,344.09,246.59,345.44z"/>
	<path class="st9" d="M141.53,342.36c0.31,1.03,0.61,2.06,0.92,3.09c-0.33,0-0.65-0.02-0.98-0.05
		C141.49,344.39,141.51,343.37,141.53,342.36z"/>
	<path class="st7" d="M141.41,339.34c-0.02,1.03-0.04,2.06-0.06,3.08c-0.59-0.61-1.18-1.21-1.76-1.82
		C140.19,340.18,140.8,339.76,141.41,339.34z"/>
	<path class="st7" d="M141.46,345.4c0.33,0.03,0.65,0.05,0.98,0.05c0.01,1.01,0.03,2.03,0.04,3.04
		C142.15,347.46,141.81,346.43,141.46,345.4z"/>
	<path class="st7" d="M84.48,188.6c0.33,1.04,0.66,2.08,0.99,3.12C85.15,190.68,84.81,189.64,84.48,188.6z"/>
	<path class="st7" d="M144.38,364.79c0.01,0.68,0.03,1.36,0.04,2.03c-0.51-0.41-1.03-0.82-1.54-1.23
		C143.38,365.33,143.88,365.06,144.38,364.79z"/>
	<path class="st8" d="M193.45,64.49c-0.67,0.79-1.33,1.59-2,2.38C192.12,66.08,192.78,65.29,193.45,64.49z"/>
	<path class="st8" d="M249.33,341.37c0.34-0.33,0.68-0.67,1.02-1C250.01,340.71,249.67,341.04,249.33,341.37z"/>
	<path class="st7" d="M322.38,291.42c0.4-0.27,0.81-0.54,1.21-0.81C323.19,290.88,322.79,291.15,322.38,291.42z"/>
	<path class="st1" d="M194.35,198.86c-1.87,0-3.75-0.16-5.59,0.03c-2.72,0.28-4.15-0.63-5.32-3.3c-3.17-7.24-9.51-7.24-13.8-4.83
		c-5.81,3.27-6.37,9.64-2.28,15.22c7.65,10.43,14.51,21.27,16.25,34.48c0.37,2.79,0.47,5.62,0.75,9.26
		c-6.16,0-11.69,0.14-17.21-0.14c-0.88-0.04-2.24-1.88-2.41-3.04c-1.82-12.13-8.59-21.63-15.34-31.46
		c-10.3-15.01-3.58-36.79,14.51-43.59c10.04-3.77,19.54-2.83,28.14,4.06c0.61,0.49,1.53,0.61,2.31,0.9
		c0.01,0.35,0.01,0.71,0.02,1.06C194.37,184.62,194.36,191.74,194.35,198.86z"/>
	<path class="st4" d="M307.36,269.12c-1.37,6.45-2.75,12.9-4.12,19.35c-16.28-0.01-32.56-0.02-48.83-0.03
		c-0.02-6.11-0.04-12.22-0.06-18.33c1.59-0.34,3.18-0.97,4.77-0.98C275.2,269.06,291.28,269.1,307.36,269.12z"/>
	<path class="st10" d="M244.24,189.87c6.68,0,12.7,0,19.02,0c0,6.32,0,12.45,0,19.17c-5.1,0-10.13,0.29-15.09-0.19
		c-1.42-0.14-3.61-2.41-3.76-3.87C243.94,200.16,244.24,195.26,244.24,189.87z"/>
	<path class="st1" d="M194.34,69.59c0.69-0.01,1.38-0.01,2.06-0.02c0.34,4.87,0.96,9.74,0.97,14.6c0.09,28.47,0.12,56.94-0.09,85.41
		c-0.02,2.29-1.91,4.57-2.93,6.85C194.35,140.83,194.34,105.21,194.34,69.59z"/>
	<path class="st11" d="M307.36,269.12c-16.08-0.01-32.17-0.05-48.25,0.01c-1.59,0.01-3.18,0.64-4.77,0.98
		c-0.59-0.64-1.19-1.29-1.78-1.93c1.02-0.71,2-1.92,3.08-2.02c3.02-0.28,6.09-0.11,9.14-0.11c11.69,0,23.38-0.02,35.06,0.01
		c5.01,0.01,8.56-1.22,11.15-6.49c3.12-6.33,8.13-11.52,14.81-14.9c6.7-3.39,7.16-5.81,2.22-11.44c-2.2-2.5-5.28-4.86-3.3-8.98
		c3.84,5.43,7.67,10.87,11.66,16.53c-3.63,2.33-6.4,4.21-9.28,5.93c-7.62,4.56-13,11.09-17.06,18.87
		C309.38,266.87,308.27,267.94,307.36,269.12z"/>
	<path class="st4" d="M194.35,198.86c0.01-7.12,0.02-14.24,0.03-21.36c7.08,5.03,9.01,12.51,10.17,20.65
		c-2.98,0.62-5.56,1.16-8.14,1.69c-0.66-0.01-1.32-0.03-1.98-0.04C194.4,199.48,194.38,199.17,194.35,198.86z"/>
	<path class="st11" d="M254.41,288.44c16.28,0.01,32.56,0.02,48.83,0.03c-0.01,0.67-0.02,1.34-0.03,2.01
		c-3.99,0.34-7.97,0.92-11.96,0.97c-11.09,0.13-22.19,0.08-33.28,0.01C256.13,291.44,253.23,292.22,254.41,288.44z"/>
	<path class="st11" d="M268.67,98.05c1.68,1.38,3.35,2.76,5.03,4.14c2.75,3.56,5.54,7.08,8.25,10.67
		c6.91,9.19,13.02,18.81,16.26,29.99c-1.98-2.67-4.6-5.08-5.83-8.07c-4.31-10.39-10.8-19.12-18.54-27.17
		c-3.24-3.38-5.5-7.7-8.21-11.59C266.63,96.7,267.65,97.37,268.67,98.05z"/>
	<path class="st11" d="M304.25,191.72c2.38,3.73,4.77,7.46,7.15,11.19c-3.15-0.67-8.82-7.23-8.73-10.28
		C302.68,192.32,303.7,192.03,304.25,191.72z"/>
	<path class="st11" d="M247.3,83.79c3.74,2.38,7.48,4.75,11.22,7.13C253.64,90.33,249.37,88.8,247.3,83.79z"/>
	<path class="st11" d="M316.52,211.05c2.38,3.73,4.77,7.46,7.15,11.19C318.69,219.84,315.31,214.55,316.52,211.05z"/>
	<path class="st11" d="M208.62,70.57c4.75,1.01,9.51,2.02,14.26,3.03C217.89,73.69,212.68,74.83,208.62,70.57z"/>
	<path class="st11" d="M226.94,74.64c2.72,1.01,5.44,2.02,8.16,3.03C231.26,79.66,228.48,78.81,226.94,74.64z"/>
	<path class="st11" d="M299.24,145.89c0.67,2.38,1.35,4.76,2.02,7.14C297.71,151.47,295.73,149.45,299.24,145.89z"/>
	<path class="st11" d="M238.13,78.72c2.04,1.02,4.07,2.03,6.11,3.05C240.72,83.72,238.95,82.18,238.13,78.72z"/>
	<path class="st11" d="M199.46,69.57c2.04,0.32,4.08,0.65,6.11,0.97C202.93,74.03,201.15,72.08,199.46,69.57z"/>
	<path class="st11" d="M312.49,204.92c0.98,1.37,1.97,2.74,2.95,4.1C312.86,208.81,310.08,208.74,312.49,204.92z"/>
	<path class="st11" d="M260.52,91.95c0.68,0.67,1.37,1.33,2.05,2C261.89,93.28,261.21,92.62,260.52,91.95z"/>
	<path class="st12" d="M342.75,150.35c0,6.35,0,12.37,0,18.69c-6.69,0-13.15,0-19.87,0c0-6.28,0-12.29,0-18.69
		C329.35,150.35,335.82,150.35,342.75,150.35z"/>
</g>
<g>
	<path class="st13" d="M53.39,457.32c-6.28,0-11.88-2.66-16.82-7.99c-4.93-5.33-7.4-11.93-7.4-19.82c0-7.89,2.4-14.35,7.2-19.38
		c4.8-5.03,10.42-7.54,16.87-7.54c6.44,0,11.7,2.27,15.78,6.8v-26.04h14.79v73.18H69.02v-7C64.88,454.73,59.67,457.32,53.39,457.32z
		 M44.07,430.1c0,4.27,1.28,7.78,3.85,10.5s5.56,4.09,8.98,4.09c3.42,0,6.33-1.36,8.73-4.09c2.4-2.73,3.6-6.25,3.6-10.55
		c0-4.31-1.2-7.89-3.6-10.75c-2.4-2.86-5.34-4.29-8.83-4.29c-3.49,0-6.48,1.45-8.98,4.34C45.32,422.25,44.07,425.83,44.07,430.1z"/>
	<path class="st13" d="M115.48,414.13v23.77c0,2.04,0.53,3.63,1.58,4.78c1.05,1.15,2.3,1.73,3.75,1.73c2.76,0,5.09-1.25,7-3.75
		l5.52,10.36c-4.6,4.21-9.45,6.31-14.55,6.31c-5.1,0-9.4-1.68-12.92-5.03c-3.52-3.35-5.28-7.92-5.28-13.71v-24.46h-6.21v-10.65h6.21
		V387.6h14.89v15.88h12.82v10.65H115.48z"/>
	<path class="st13" d="M187.18,448.84c-5.98,5.66-13,8.48-21.06,8.48c-8.06,0-14.71-2.48-19.97-7.45
		c-5.26-4.96-7.89-11.62-7.89-19.97c0-8.35,2.68-14.99,8.04-19.92c5.36-4.93,11.69-7.4,18.99-7.4s13.49,2.2,18.59,6.61
		c5.09,4.41,7.64,10.45,7.64,18.15v7.89h-38.66c0.46,2.89,1.97,5.26,4.54,7.1c2.56,1.84,5.46,2.76,8.68,2.76
		c5.19,0,9.47-1.74,12.82-5.23L187.18,448.84z M172.97,417.38c-2.04-1.71-4.52-2.56-7.45-2.56c-2.93,0-5.61,0.89-8.04,2.66
		c-2.43,1.78-3.85,4.18-4.24,7.2h23.28C176.19,421.52,175.01,419.09,172.97,417.38z"/>
	<path class="st13" d="M216.96,456.54h-14.79v-73.18h14.79v37.58l16.47-17.55h18.64l-20.22,21.5l21.01,31.66h-17.56l-13.51-20.32
		l-4.83,5.03V456.54z"/>
	<path class="st13" d="M299.71,440.02c0,5.23-1.92,9.42-5.77,12.57s-8.73,4.73-14.65,4.73c-3.95,0-8.05-0.71-12.33-2.12
		c-4.28-1.41-8.12-3.5-11.54-6.26l6.51-9.27c5.52,4.28,11.41,6.41,17.65,6.41c1.91,0,3.42-0.38,4.54-1.13
		c1.12-0.75,1.68-1.76,1.68-3.01c0-1.25-0.77-2.4-2.32-3.45c-1.54-1.05-3.78-2.04-6.71-2.96c-2.93-0.92-5.16-1.71-6.71-2.37
		c-1.55-0.66-3.3-1.61-5.28-2.86c-4.01-2.5-6.02-6.2-6.02-11.1c0-4.9,1.97-8.89,5.92-11.98c3.95-3.09,9.04-4.63,15.29-4.63
		c6.25,0,12.49,2.1,18.74,6.31l-5.52,9.86c-4.6-3.16-9.19-4.73-13.76-4.73s-6.85,1.25-6.85,3.75c0,1.38,0.72,2.46,2.17,3.25
		c1.45,0.79,3.85,1.71,7.2,2.76c3.35,1.05,5.73,1.86,7.15,2.42c1.41,0.56,3.11,1.43,5.08,2.61
		C297.87,431.06,299.71,434.79,299.71,440.02z"/>
	<path class="st13" d="M325.84,456.54h-14.79v-73.18h14.79v37.58l16.47-17.55h18.64l-20.22,21.5l21.01,31.66h-17.56l-13.51-20.32
		l-4.83,5.03V456.54z"/>
	<path class="st13" d="M370.96,396.72c-1.68-1.68-2.51-3.73-2.51-6.17c0-2.43,0.84-4.49,2.51-6.16s3.73-2.51,6.16-2.51
		c2.43,0,4.49,0.84,6.16,2.51s2.51,3.73,2.51,6.16c0,2.43-0.84,4.49-2.51,6.17c-1.68,1.68-3.73,2.51-6.16,2.51
		C374.69,399.23,372.64,398.39,370.96,396.72z M384.53,456.54h-14.79v-53.06h14.79V456.54z"/>
	<path class="st13" d="M413.32,456.54h-14.79v-73.18h14.79V456.54z"/>
	<path class="st13" d="M426.34,415.7v-12.23h42.8v11.54l-25.74,29.19h27.22v12.33h-46.16v-12.23l25.05-28.6H426.34z"/>
</g>
<g>
	<path class="st13" d="M334.22,462.17c2.07,1.76,3.11,4.46,3.11,8.11c0,3.65-1.06,6.32-3.19,8.01s-5.37,2.54-9.74,2.54h-3.93v8.24
		h-6.59v-29.53h10.44C328.85,459.53,332.15,460.42,334.22,462.17z M329.38,473.79c0.79-0.89,1.18-2.18,1.18-3.89
		s-0.51-2.92-1.54-3.63c-1.03-0.72-2.63-1.08-4.8-1.08h-3.76v9.93h4.44C327.1,475.12,328.6,474.68,329.38,473.79z"/>
	<path class="st13" d="M360.78,489.07h-5.96v-2.75c-1.63,2.06-3.65,3.08-6.06,3.08c-2.41,0-4.43-0.7-6.06-2.09
		c-1.63-1.39-2.45-3.25-2.45-5.58c0-2.32,0.85-4.06,2.54-5.22c1.69-1.16,4-1.73,6.93-1.73h4.73v-0.13c0-2.42-1.28-3.63-3.85-3.63
		c-1.1,0-2.26,0.22-3.49,0.66s-2.26,0.98-3.11,1.63l-2.83-4.1c2.99-2.17,6.39-3.25,10.23-3.25c2.76,0,5.01,0.69,6.76,2.07
		c1.75,1.38,2.62,3.56,2.62,6.55V489.07z M354.4,480.41v-1.1h-3.97c-2.54,0-3.8,0.79-3.8,2.37c0,0.82,0.3,1.44,0.91,1.88
		c0.61,0.44,1.47,0.65,2.6,0.65c1.13,0,2.12-0.34,2.98-1.04C353.97,482.48,354.4,481.56,354.4,480.41z"/>
	<path class="st13" d="M378.52,471.91c-1.89,0-3.29,0.67-4.22,2.01s-1.39,3.11-1.39,5.3v9.84h-6.34v-22.73h6.34v3
		c0.82-0.93,1.84-1.72,3.06-2.37c1.22-0.65,2.47-0.99,3.74-1.01l0.04,5.96H378.52z"/>
	<path class="st13" d="M391.5,470.9v10.18c0,0.87,0.22,1.56,0.68,2.05c0.45,0.49,0.99,0.74,1.61,0.74c1.18,0,2.18-0.53,3-1.61
		l2.37,4.44c-1.97,1.8-4.05,2.7-6.23,2.7c-2.18,0-4.03-0.72-5.54-2.15c-1.51-1.44-2.26-3.39-2.26-5.87V470.9h-2.66v-4.56h2.66v-6.8
		h6.38v6.8h5.49v4.56H391.5z"/>
	<path class="st13" d="M408.86,476.39v12.68h-6.34v-22.73h6.34v2.54c1.92-1.94,4.07-2.92,6.46-2.92c2.39,0,4.4,0.85,6.02,2.54
		c1.62,1.69,2.43,3.94,2.43,6.76v13.82h-6.34v-12.84c0-3.49-1.28-5.24-3.84-5.24c-1.27,0-2.37,0.46-3.32,1.37
		C409.33,473.27,408.86,474.62,408.86,476.39z"/>
	<path class="st13" d="M449.21,485.77c-2.56,2.42-5.57,3.63-9.02,3.63c-3.45,0-6.3-1.06-8.56-3.19s-3.38-4.98-3.38-8.56
		s1.15-6.42,3.44-8.54c2.3-2.11,5.01-3.17,8.13-3.17s5.78,0.94,7.96,2.83c2.18,1.89,3.27,4.48,3.27,7.77v3.38h-16.56
		c0.2,1.24,0.85,2.25,1.94,3.04c1.1,0.79,2.34,1.18,3.72,1.18c2.22,0,4.06-0.75,5.49-2.24L449.21,485.77z M443.13,472.29
		c-0.87-0.73-1.94-1.1-3.19-1.1c-1.25,0-2.4,0.38-3.44,1.14c-1.04,0.76-1.65,1.79-1.82,3.08h9.97
		C444.51,474.07,444,473.03,443.13,472.29z"/>
	<path class="st13" d="M467.59,471.91c-1.89,0-3.29,0.67-4.22,2.01s-1.39,3.11-1.39,5.3v9.84h-6.34v-22.73h6.34v3
		c0.82-0.93,1.84-1.72,3.06-2.37c1.22-0.65,2.47-0.99,3.74-1.01l0.04,5.96H467.59z"/>
</g>
</svg>
