<?xml version="1.0" encoding="UTF-8"?>
<svg id="Layer_2" data-name="Layer 2" xmlns="http://www.w3.org/2000/svg" viewBox="0 0 582.61 771.87">
  <g id="Layer_1-2" data-name="Layer 1">
    <g id="Statment">
      <path d="m501.42,185.77c13.22.78,25.66,1.75,38.13,2.2,26.66.97,44.35,19.39,42.99,45.89-2.4,46.41-5.24,92.81-7.83,139.21-1.49,26.78-2.78,53.58-4.27,80.36-2.18,39.09-4.5,78.17-6.7,117.25-1.8,32.1-3.47,64.21-5.26,96.32-1.26,22.62-2.4,45.25-4.01,67.85-1.44,20.18-19.91,37.46-40.38,37.02-22.81-.49-45.6-2.08-68.39-3.32-38.43-2.1-76.85-4.31-115.27-6.48-39.92-2.25-79.83-4.53-119.75-6.76-32.27-1.8-64.54-3.5-96.81-5.32-8.3-.47-16.69-.64-24.86-1.98-20.91-3.44-35.2-21.25-34.72-42.4.08-3.63.01-7.26.01-11.51-3.72,0-7.33,0-10.94,0-24.84-.06-43.09-18-43.1-42.74-.06-110.32-.03-220.64-.03-330.96,0-55.33.49-110.66-.22-165.98-.31-24.52,18.43-46.63,45.68-44.95,2.78.17,5.57.02,8.63.02,0-3.74.08-6.86-.01-9.97-.74-24.98,16.18-43.31,41.11-44.69,32.1-1.78,64.2-3.67,96.3-5.54,8.38-.49,14.37,4.02,14.86,11.31.52,7.83-4.57,13.08-13.15,13.57-32.43,1.87-64.87,3.69-97.29,5.62-11.02.66-17.14,7.65-16.85,18.76.09,3.3.01,6.61.01,10.42h149.35c0-11.38-.02-22.66,0-33.94.03-12.96-.65-25.91,4.48-38.39C242.2,14.58,263.6,0,287.85,0c24.31,0,45.87,14.41,54.7,36.61.94,2.37,1.49,4.31,5.04,4.08,25.94-1.66,51.89-3.06,77.84-4.49,27.61-1.52,55.23-3.02,82.85-4.44,26.23-1.35,44.84,15.15,46.47,41.27,1.6,25.6,2.98,51.22,4.59,76.82.35,5.55-.76,10.33-5.52,13.61-3.87,2.67-8.15,2.88-12.36.9-4.67-2.2-6.74-6.14-7.02-11.22-1.38-25.12-2.74-50.23-4.29-75.34-.25-4.09-.59-8.52-2.32-12.1-3.24-6.72-9.22-9.73-16.83-9.3-52.89,2.94-105.79,5.82-158.69,8.77-13.8.77-27.59,1.79-41.4,2.56-8.26.46-14.28-4.43-14.65-11.63-.37-7.12,4.33-12.51,11.48-13.14,2.97-.26,5.95-.45,9.02-.68-5.57-13.63-23.35-20.25-38.44-16.19-17.05,4.58-27.84,23.19-24.11,42.48,8.67-.86,17.15-.05,25.05,4.17,14.84,7.92,22.78,20.35,23.02,37.06.35,25.49.11,50.99.07,76.49,0,2.76-.39,5.52-.65,8.95,11.43-5.74,18.75-14.23,19.63-26.35,1.07-14.76.56-29.63.83-44.45.04-2.47.09-5.1.94-7.35,2.36-6.24,7.61-7.73,13.74-7.72,32.5.06,64.99.01,97.49.06,9.83.01,19.7-.37,29.47.46,21.19,1.78,37.33,19.62,37.59,40.92.14,11.47.02,22.94.02,34.95Zm-272.78-51.52c-2.3,0-4.08,0-5.86,0-58.83,0-117.66.19-176.48-.13-13.47-.07-21.29,7.37-21.24,21.44.34,92.66.18,185.32.18,277.97,0,71.99-.05,143.99.11,215.98,0,3.98.93,8.37,2.78,11.85,3.53,6.63,10.06,7.86,17.15,7.86,136.99-.07,273.97-.05,410.96-.05,14.11,0,20.26-6.25,20.26-20.54,0-164.48,0-328.97,0-493.45,0-14.75-6.18-20.91-21.05-20.92-34.16-.01-68.33,0-102.49,0h-5.72c-.12,2.19-.28,3.81-.29,5.43-.03,8.17.17,16.34-.06,24.5-.66,23.24-10.93,41.04-31.48,51.97-19.99,10.63-40.29,9.68-59.36-2.42-18.05-11.45-26.86-28.61-27.37-49.93-.23-9.62-.04-19.26-.04-29.55Zm272.78,76.65v7.33c0,143.65-.21,287.3.19,430.95.07,26.16-20.02,45.24-45.17,45.14-123.32-.51-246.64-.23-369.96-.23h-7.26c0,4.56-.02,8.51,0,12.47.05,9.31,6.6,16.64,15.92,17.32,12.13.88,24.27,1.45,36.42,2.12,32.27,1.79,64.54,3.54,96.81,5.34,33.77,1.88,67.53,3.82,101.29,5.7,21.29,1.19,42.59,2.32,63.88,3.5,38.76,2.15,77.51,4.4,116.27,6.42,12.77.67,19.37-5.28,20.17-18.03,1.63-26.27,3.01-52.55,4.48-78.83,2.13-38.26,4.22-76.52,6.36-114.77,2.18-39.09,4.41-78.17,6.59-117.26,2.21-39.42,4.41-78.85,6.58-118.27,1.25-22.62,2.55-45.24,3.62-67.88.53-11.33-6.35-18.42-17.79-18.96-3.99-.19-7.98-.47-11.98-.69-8.61-.46-17.21-.9-26.43-1.37Zm-226.83-15.83c.94-2.9,2.65-5.77,2.67-8.65.21-25.61.22-51.23.07-76.85-.05-8.06-5.96-14.62-13.76-16.15-6.07-1.19-9.93,1.66-9.95,7.78-.09,21.29-.2,42.59.04,63.87.15,13.05,8.76,25.36,20.93,29.99Z"/>
      <path d="m244.98,423.03c-56.5,0-112.99,0-169.49-.02-2.15,0-4.39.09-6.45-.43-6.18-1.56-10.15-7.44-9.43-13.53.71-6.05,5.9-10.71,12.3-11.02,1-.05,2-.01,3-.01,113.32,0,226.65,0,339.97.01,1.83,0,3.71-.1,5.47.27,6.09,1.29,10.56,7.3,9.97,13.15-.62,6.2-5.59,11.06-11.87,11.52-1.66.12-3.33.05-5,.05-56.16,0-112.32,0-168.49,0Z"/>
      <path d="m246.84,528.95c56.82,0,113.64,0,170.47,0,7.48,0,12.37,3.06,14.14,8.72,2.61,8.38-3.53,16.17-13.03,16.22-21.83.09-43.66.04-65.49.04-92.15,0-184.29,0-276.44-.01-1.66,0-3.36.03-4.97-.28-6.55-1.28-10.62-6.76-10.11-13.4.46-6.03,5.65-11.07,11.98-11.23,7.33-.19,14.66-.06,21.99-.06,50.49,0,100.98,0,151.47,0Z"/>
      <path d="m243.5,291.99c-57.15,0-114.3,0-171.45,0-8.48,0-13.86-4.78-13.98-12.26-.1-6.66,4.43-11.83,11.09-12.57,1.15-.13,2.33-.07,3.5-.07,113.8,0,227.6,0,341.39,0,9.17,0,14.62,4.84,14.48,12.75-.12,6.35-4.77,11.47-11.08,12.08-1.82.17-3.66.08-5.5.08-56.15,0-112.3,0-168.45,0Z"/>
      <path d="m246,488.31c-56.49,0-112.97,0-169.46,0-1.66,0-3.34.04-4.99-.14-6.19-.64-10.8-5.47-11.1-11.52-.3-6.05,3.73-11.46,9.73-12.74,2.09-.45,4.29-.53,6.45-.53,112.64-.02,225.28-.02,337.92,0,2.16,0,4.35.04,6.46.44,6.12,1.16,10.76,7.12,10.26,12.93-.53,6.27-5.39,11.21-11.81,11.41-8.32.26-16.66.15-24.99.15-49.49,0-98.98,0-148.46,0Z"/>
      <path d="m247.52,619.26c-57.15,0-114.29.01-171.44-.01-9.3,0-14.47-5.27-13.72-13.76.49-5.53,4.59-9.94,10.13-10.74,1.64-.24,3.32-.21,4.98-.21,113.13,0,226.25-.03,339.38.11,3.78,0,8.03.92,11.23,2.83,4.51,2.68,5.72,8.46,4.15,13.36-1.62,5.05-5.99,8.32-11.77,8.39-9.66.12-19.33.04-28.99.04-47.98,0-95.97,0-143.95,0Z"/>
      <path d="m243.97,332.72c57.15,0,114.29-.02,171.44.01,10.54,0,16.73,8.09,13.04,16.99-2.22,5.36-6.5,7.75-12.24,7.74-11-.01-21.99.02-32.99.02-102.96,0-205.93-.01-308.89-.02-8.59,0-13.5-3.04-15.11-9.34-1.93-7.58,3.02-14.65,10.8-15.32,1.82-.16,3.66-.1,5.49-.1,56.15,0,112.3,0,168.44,0Z"/>
      <path d="m129.95,210.03c-19.32,0-38.64.02-57.96,0-9.05-.01-14.41-4.55-14.52-12.19-.11-7.76,5.54-12.76,14.57-12.77,39.14-.02,78.28-.03,117.42.02,7.46,0,12.81,4.61,13.54,11.3.67,6.16-3.46,11.99-9.62,13.32-1.76.38-3.64.31-5.47.32-19.32.02-38.64.01-57.96.01Z"/>
    </g>
  </g>
</svg>