<svg xmlns="http://www.w3.org/2000/svg" xmlns:xlink="http://www.w3.org/1999/xlink" width="500" zoomAndPan="magnify" viewBox="0 0 375 374.999991" height="500" preserveAspectRatio="xMidYMid meet" version="1.0"><defs><g/><clipPath id="dea3bb66d4"><path d="M 114.546875 70.964844 L 241.710938 70.964844 L 241.710938 198.125 L 114.546875 198.125 Z M 114.546875 70.964844 " clip-rule="nonzero"/></clipPath><clipPath id="6bd1ae4aa4"><path d="M 131.796875 70.964844 L 224.460938 70.964844 C 233.988281 70.964844 241.710938 78.6875 241.710938 88.214844 L 241.710938 180.875 C 241.710938 190.402344 233.988281 198.125 224.460938 198.125 L 131.796875 198.125 C 122.269531 198.125 114.546875 190.402344 114.546875 180.875 L 114.546875 88.214844 C 114.546875 78.6875 122.269531 70.964844 131.796875 70.964844 Z M 131.796875 70.964844 " clip-rule="nonzero"/></clipPath></defs><g fill="#ffffff" fill-opacity="1"><g transform="translate(19.969568, 275.320406)"><g><path d="M 3.578125 -7.21875 C 2.359375 -8.707031 1.75 -10.046875 1.75 -11.234375 C 1.75 -12.429688 2.753906 -14.007812 4.765625 -15.96875 C 5.929688 -17.082031 7.164062 -17.640625 8.46875 -17.640625 C 9.78125 -17.640625 11.601562 -16.472656 13.9375 -14.140625 C 14.59375 -13.347656 15.523438 -12.585938 16.734375 -11.859375 C 17.953125 -11.140625 19.070312 -10.78125 20.09375 -10.78125 C 24.4375 -10.78125 26.609375 -12.554688 26.609375 -16.109375 C 26.609375 -17.179688 26.015625 -18.078125 24.828125 -18.796875 C 23.640625 -19.523438 22.15625 -20.050781 20.375 -20.375 C 18.601562 -20.707031 16.691406 -21.234375 14.640625 -21.953125 C 12.585938 -22.679688 10.671875 -23.535156 8.890625 -24.515625 C 7.117188 -25.492188 5.632812 -27.046875 4.4375 -29.171875 C 3.25 -31.296875 2.65625 -33.851562 2.65625 -36.84375 C 2.65625 -40.945312 4.179688 -44.523438 7.234375 -47.578125 C 10.296875 -50.640625 14.46875 -52.171875 19.75 -52.171875 C 22.550781 -52.171875 25.109375 -51.804688 27.421875 -51.078125 C 29.734375 -50.359375 31.332031 -49.625 32.21875 -48.875 L 33.96875 -47.546875 C 35.414062 -46.191406 36.140625 -45.046875 36.140625 -44.109375 C 36.140625 -43.179688 35.578125 -41.898438 34.453125 -40.265625 C 32.867188 -37.929688 31.234375 -36.765625 29.546875 -36.765625 C 28.566406 -36.765625 27.351562 -37.234375 25.90625 -38.171875 C 25.769531 -38.265625 25.503906 -38.492188 25.109375 -38.859375 C 24.710938 -39.234375 24.347656 -39.539062 24.015625 -39.78125 C 23.035156 -40.382812 21.785156 -40.6875 20.265625 -40.6875 C 18.753906 -40.6875 17.492188 -40.320312 16.484375 -39.59375 C 15.484375 -38.875 14.984375 -37.875 14.984375 -36.59375 C 14.984375 -35.3125 15.578125 -34.269531 16.765625 -33.46875 C 17.960938 -32.675781 19.445312 -32.140625 21.21875 -31.859375 C 22.988281 -31.578125 24.925781 -31.144531 27.03125 -30.5625 C 29.132812 -29.976562 31.070312 -29.265625 32.84375 -28.421875 C 34.613281 -27.585938 36.09375 -26.128906 37.28125 -24.046875 C 38.476562 -21.972656 39.078125 -19.414062 39.078125 -16.375 C 39.078125 -13.34375 38.46875 -10.671875 37.25 -8.359375 C 36.039062 -6.054688 34.457031 -4.273438 32.5 -3.015625 C 28.71875 -0.535156 24.675781 0.703125 20.375 0.703125 C 18.1875 0.703125 16.109375 0.4375 14.140625 -0.09375 C 12.179688 -0.632812 10.597656 -1.300781 9.390625 -2.09375 C 6.910156 -3.59375 5.179688 -5.039062 4.203125 -6.4375 Z M 3.578125 -7.21875 "/></g></g></g><g fill="#ffffff" fill-opacity="1"><g transform="translate(58.408685, 275.320406)"><g><path d="M 2.796875 10.015625 L 2.796875 -30.890625 C 2.796875 -31.960938 2.832031 -32.753906 2.90625 -33.265625 C 2.976562 -33.773438 3.175781 -34.359375 3.5 -35.015625 C 4.15625 -36.273438 5.71875 -36.90625 8.1875 -36.90625 C 10.664062 -36.90625 12.335938 -36.585938 13.203125 -35.953125 C 14.066406 -35.328125 14.566406 -34.40625 14.703125 -33.1875 C 16.484375 -35.625 19.273438 -36.84375 23.078125 -36.84375 C 26.878906 -36.84375 30.484375 -35.039062 33.890625 -31.4375 C 37.296875 -27.84375 39 -23.664062 39 -18.90625 C 39 -14.144531 37.304688 -9.96875 33.921875 -6.375 C 30.546875 -2.78125 26.941406 -0.984375 23.109375 -0.984375 C 19.285156 -0.984375 16.507812 -2.054688 14.78125 -4.203125 L 14.78125 9.9375 C 14.78125 11.019531 14.742188 11.816406 14.671875 12.328125 C 14.597656 12.835938 14.382812 13.429688 14.03125 14.109375 C 13.6875 14.785156 13.09375 15.265625 12.25 15.546875 C 11.414062 15.828125 10.273438 15.96875 8.828125 15.96875 C 7.378906 15.96875 6.222656 15.828125 5.359375 15.546875 C 4.492188 15.265625 3.882812 14.796875 3.53125 14.140625 C 3.1875 13.492188 2.976562 12.910156 2.90625 12.390625 C 2.832031 11.878906 2.796875 11.085938 2.796875 10.015625 Z M 16.671875 -22.96875 C 15.597656 -21.707031 15.0625 -20.328125 15.0625 -18.828125 C 15.0625 -17.335938 15.609375 -15.972656 16.703125 -14.734375 C 17.796875 -13.503906 19.191406 -12.890625 20.890625 -12.890625 C 22.597656 -12.890625 24.046875 -13.492188 25.234375 -14.703125 C 26.429688 -15.921875 27.03125 -17.300781 27.03125 -18.84375 C 27.03125 -20.382812 26.46875 -21.769531 25.34375 -23 C 24.226562 -24.238281 22.769531 -24.859375 20.96875 -24.859375 C 19.175781 -24.859375 17.742188 -24.226562 16.671875 -22.96875 Z M 16.671875 -22.96875 "/></g></g></g><g fill="#ffffff" fill-opacity="1"><g transform="translate(96.777768, 275.320406)"><g><path d="M 1.75 -18.421875 C 1.75 -24.023438 3.707031 -28.644531 7.625 -32.28125 C 11.550781 -35.925781 16.035156 -37.75 21.078125 -37.75 C 26.117188 -37.75 30.578125 -35.9375 34.453125 -32.3125 C 38.328125 -28.695312 40.265625 -24.085938 40.265625 -18.484375 C 40.265625 -14.609375 39.257812 -11.164062 37.25 -8.15625 C 35.25 -5.144531 32.8125 -2.925781 29.9375 -1.5 C 27.0625 -0.0820312 24.082031 0.625 21 0.625 C 17.925781 0.625 14.941406 -0.128906 12.046875 -1.640625 C 9.148438 -3.160156 6.707031 -5.398438 4.71875 -8.359375 C 2.738281 -11.328125 1.75 -14.679688 1.75 -18.421875 Z M 16.375 -13.40625 C 17.875 -12.257812 19.394531 -11.6875 20.9375 -11.6875 C 22.476562 -11.6875 24.019531 -12.269531 25.5625 -13.4375 C 27.101562 -14.613281 27.875 -16.34375 27.875 -18.625 C 27.875 -20.914062 27.148438 -22.617188 25.703125 -23.734375 C 24.253906 -24.859375 22.6875 -25.421875 21 -25.421875 C 19.320312 -25.421875 17.757812 -24.835938 16.3125 -23.671875 C 14.863281 -22.503906 14.140625 -20.785156 14.140625 -18.515625 C 14.140625 -16.253906 14.882812 -14.550781 16.375 -13.40625 Z M 16.375 -13.40625 "/></g></g></g><g fill="#ffffff" fill-opacity="1"><g transform="translate(136.407185, 275.320406)"><g><path d="M 24.234375 -24.515625 L 19.671875 -24.796875 L 19.671875 -15.125 C 19.671875 -13.863281 19.867188 -12.953125 20.265625 -12.390625 C 20.671875 -11.835938 21.421875 -11.5625 22.515625 -11.5625 C 23.609375 -11.5625 24.445312 -11.523438 25.03125 -11.453125 C 25.613281 -11.378906 26.234375 -11.15625 26.890625 -10.78125 C 27.960938 -10.175781 28.5 -8.613281 28.5 -6.09375 C 28.5 -3.15625 27.847656 -1.359375 26.546875 -0.703125 C 25.835938 -0.367188 25.210938 -0.164062 24.671875 -0.09375 C 24.140625 -0.03125 23.363281 0 22.34375 0 C 17.488281 0 13.800781 -1.09375 11.28125 -3.28125 C 8.757812 -5.476562 7.5 -9.191406 7.5 -14.421875 L 7.5 -24.796875 C 6.601562 -24.648438 5.640625 -24.578125 4.609375 -24.578125 C 3.585938 -24.578125 2.738281 -24.972656 2.0625 -25.765625 C 1.382812 -26.566406 1.046875 -27.921875 1.046875 -29.828125 C 1.046875 -31.742188 1.160156 -33.132812 1.390625 -34 C 1.628906 -34.863281 1.957031 -35.484375 2.375 -35.859375 C 3.125 -36.460938 4.0625 -36.765625 5.1875 -36.765625 L 7.5 -36.484375 L 7.5 -43.703125 C 7.5 -44.773438 7.53125 -45.566406 7.59375 -46.078125 C 7.664062 -46.585938 7.890625 -47.148438 8.265625 -47.765625 C 8.867188 -48.929688 10.664062 -49.515625 13.65625 -49.515625 C 16.832031 -49.515625 18.722656 -48.648438 19.328125 -46.921875 C 19.554688 -46.171875 19.671875 -44.976562 19.671875 -43.34375 L 19.671875 -36.484375 C 21.734375 -36.671875 23.285156 -36.765625 24.328125 -36.765625 C 25.378906 -36.765625 26.171875 -36.726562 26.703125 -36.65625 C 27.242188 -36.59375 27.867188 -36.375 28.578125 -36 C 29.785156 -35.382812 30.390625 -33.585938 30.390625 -30.609375 C 30.390625 -27.660156 29.757812 -25.863281 28.5 -25.21875 C 27.800781 -24.882812 27.179688 -24.679688 26.640625 -24.609375 C 26.109375 -24.546875 25.304688 -24.515625 24.234375 -24.515625 Z M 24.234375 -24.515625 "/></g></g></g><g fill="#ffffff" fill-opacity="1"><g transform="translate(165.463837, 275.320406)"><g><path d="M 3.578125 -7.21875 C 2.359375 -8.707031 1.75 -10.046875 1.75 -11.234375 C 1.75 -12.429688 2.753906 -14.007812 4.765625 -15.96875 C 5.929688 -17.082031 7.164062 -17.640625 8.46875 -17.640625 C 9.78125 -17.640625 11.601562 -16.472656 13.9375 -14.140625 C 14.59375 -13.347656 15.523438 -12.585938 16.734375 -11.859375 C 17.953125 -11.140625 19.070312 -10.78125 20.09375 -10.78125 C 24.4375 -10.78125 26.609375 -12.554688 26.609375 -16.109375 C 26.609375 -17.179688 26.015625 -18.078125 24.828125 -18.796875 C 23.640625 -19.523438 22.15625 -20.050781 20.375 -20.375 C 18.601562 -20.707031 16.691406 -21.234375 14.640625 -21.953125 C 12.585938 -22.679688 10.671875 -23.535156 8.890625 -24.515625 C 7.117188 -25.492188 5.632812 -27.046875 4.4375 -29.171875 C 3.25 -31.296875 2.65625 -33.851562 2.65625 -36.84375 C 2.65625 -40.945312 4.179688 -44.523438 7.234375 -47.578125 C 10.296875 -50.640625 14.46875 -52.171875 19.75 -52.171875 C 22.550781 -52.171875 25.109375 -51.804688 27.421875 -51.078125 C 29.734375 -50.359375 31.332031 -49.625 32.21875 -48.875 L 33.96875 -47.546875 C 35.414062 -46.191406 36.140625 -45.046875 36.140625 -44.109375 C 36.140625 -43.179688 35.578125 -41.898438 34.453125 -40.265625 C 32.867188 -37.929688 31.234375 -36.765625 29.546875 -36.765625 C 28.566406 -36.765625 27.351562 -37.234375 25.90625 -38.171875 C 25.769531 -38.265625 25.503906 -38.492188 25.109375 -38.859375 C 24.710938 -39.234375 24.347656 -39.539062 24.015625 -39.78125 C 23.035156 -40.382812 21.785156 -40.6875 20.265625 -40.6875 C 18.753906 -40.6875 17.492188 -40.320312 16.484375 -39.59375 C 15.484375 -38.875 14.984375 -37.875 14.984375 -36.59375 C 14.984375 -35.3125 15.578125 -34.269531 16.765625 -33.46875 C 17.960938 -32.675781 19.445312 -32.140625 21.21875 -31.859375 C 22.988281 -31.578125 24.925781 -31.144531 27.03125 -30.5625 C 29.132812 -29.976562 31.070312 -29.265625 32.84375 -28.421875 C 34.613281 -27.585938 36.09375 -26.128906 37.28125 -24.046875 C 38.476562 -21.972656 39.078125 -19.414062 39.078125 -16.375 C 39.078125 -13.34375 38.46875 -10.671875 37.25 -8.359375 C 36.039062 -6.054688 34.457031 -4.273438 32.5 -3.015625 C 28.71875 -0.535156 24.675781 0.703125 20.375 0.703125 C 18.1875 0.703125 16.109375 0.4375 14.140625 -0.09375 C 12.179688 -0.632812 10.597656 -1.300781 9.390625 -2.09375 C 6.910156 -3.59375 5.179688 -5.039062 4.203125 -6.4375 Z M 3.578125 -7.21875 "/></g></g></g><g fill="#ffffff" fill-opacity="1"><g transform="translate(203.902949, 275.320406)"><g><path d="M 38.375 -22.859375 C 38.375 -19.992188 37.660156 -17.867188 36.234375 -16.484375 C 34.816406 -15.109375 33.242188 -14.421875 31.515625 -14.421875 L 14.921875 -14.421875 C 14.921875 -13.117188 15.6875 -12.019531 17.21875 -11.125 C 18.757812 -10.238281 20.300781 -9.796875 21.84375 -9.796875 C 24.550781 -9.796875 26.675781 -10.078125 28.21875 -10.640625 L 29 -10.921875 C 30.113281 -11.429688 31.046875 -11.6875 31.796875 -11.6875 C 33.285156 -11.6875 34.566406 -10.640625 35.640625 -8.546875 C 36.253906 -7.285156 36.5625 -6.210938 36.5625 -5.328125 C 36.5625 -1.171875 31.585938 0.90625 21.640625 0.90625 C 18.179688 0.90625 15.109375 0.3125 12.421875 -0.875 C 9.742188 -2.0625 7.65625 -3.640625 6.15625 -5.609375 C 3.21875 -9.390625 1.75 -13.613281 1.75 -18.28125 C 1.75 -24.164062 3.648438 -28.867188 7.453125 -32.390625 C 11.265625 -35.910156 16.015625 -37.671875 21.703125 -37.671875 C 28.191406 -37.671875 32.957031 -35.382812 36 -30.8125 C 37.582031 -28.382812 38.375 -25.734375 38.375 -22.859375 Z M 23.59375 -20.796875 C 25.375 -20.796875 26.265625 -21.546875 26.265625 -23.046875 C 26.265625 -24.117188 25.851562 -24.976562 25.03125 -25.625 C 24.21875 -26.28125 23.050781 -26.609375 21.53125 -26.609375 C 20.019531 -26.609375 18.515625 -25.988281 17.015625 -24.75 C 15.523438 -23.519531 14.78125 -22.203125 14.78125 -20.796875 Z M 23.59375 -20.796875 "/></g></g></g><g fill="#ffffff" fill-opacity="1"><g transform="translate(241.641861, 275.320406)"><g><path d="M 27.875 -36.484375 C 28.757812 -36.203125 29.492188 -35.722656 30.078125 -35.046875 C 30.660156 -34.367188 30.953125 -33.28125 30.953125 -31.78125 C 30.953125 -30.289062 30.507812 -28.660156 29.625 -26.890625 C 28.738281 -25.117188 27.453125 -24.234375 25.765625 -24.234375 C 24.929688 -24.234375 24.128906 -24.414062 23.359375 -24.78125 C 22.585938 -25.15625 21.570312 -25.34375 20.3125 -25.34375 C 19.050781 -25.34375 17.867188 -24.898438 16.765625 -24.015625 C 15.671875 -23.128906 15.125 -22.054688 15.125 -20.796875 L 15.125 -6.09375 C 15.125 -5.019531 15.085938 -4.210938 15.015625 -3.671875 C 14.953125 -3.140625 14.734375 -2.523438 14.359375 -1.828125 C 13.660156 -0.609375 11.835938 0 8.890625 0 C 6.648438 0 5.039062 -0.394531 4.0625 -1.1875 C 3.3125 -1.84375 2.890625 -2.847656 2.796875 -4.203125 C 2.796875 -4.671875 2.796875 -5.347656 2.796875 -6.234375 L 2.796875 -30.8125 C 2.796875 -31.882812 2.832031 -32.6875 2.90625 -33.21875 C 2.976562 -33.757812 3.175781 -34.359375 3.5 -35.015625 C 4.15625 -36.273438 5.976562 -36.90625 8.96875 -36.90625 C 11.769531 -36.90625 13.519531 -36.367188 14.21875 -35.296875 C 14.726562 -34.546875 14.984375 -33.773438 14.984375 -32.984375 C 15.222656 -33.304688 15.5625 -33.703125 16 -34.171875 C 16.445312 -34.640625 17.394531 -35.269531 18.84375 -36.0625 C 20.289062 -36.851562 21.5625 -37.25 22.65625 -37.25 C 23.75 -37.25 24.671875 -37.191406 25.421875 -37.078125 C 26.171875 -36.960938 26.988281 -36.765625 27.875 -36.484375 Z M 27.875 -36.484375 "/></g></g></g><g fill="#ffffff" fill-opacity="1"><g transform="translate(271.258664, 275.320406)"><g><path d="M 39.984375 -36.0625 C 42.410156 -34.613281 43.625 -33.070312 43.625 -31.4375 C 43.625 -30.507812 43.160156 -29.226562 42.234375 -27.59375 L 27.734375 -2.734375 C 27.265625 -1.941406 26.515625 -1.226562 25.484375 -0.59375 C 24.460938 0.03125 23.445312 0.34375 22.4375 0.34375 C 21.4375 0.34375 20.476562 0.0976562 19.5625 -0.390625 C 18.65625 -0.878906 18.015625 -1.378906 17.640625 -1.890625 L 17.015625 -2.65625 L 2.453125 -27.59375 C 1.515625 -29.132812 1.046875 -30.394531 1.046875 -31.375 C 1.046875 -33.050781 2.257812 -34.613281 4.6875 -36.0625 C 6.46875 -37.09375 7.867188 -37.609375 8.890625 -37.609375 C 9.921875 -37.609375 10.726562 -37.289062 11.3125 -36.65625 C 11.894531 -36.03125 12.515625 -35.085938 13.171875 -33.828125 L 22.34375 -16.171875 L 31.515625 -33.828125 C 32.023438 -34.710938 32.410156 -35.351562 32.671875 -35.75 C 32.929688 -36.144531 33.335938 -36.539062 33.890625 -36.9375 C 34.453125 -37.332031 35.195312 -37.53125 36.125 -37.53125 C 37.0625 -37.53125 38.347656 -37.039062 39.984375 -36.0625 Z M 39.984375 -36.0625 "/></g></g></g><g fill="#ffffff" fill-opacity="1"><g transform="translate(313.548779, 275.320406)"><g><path d="M 38.375 -22.859375 C 38.375 -19.992188 37.660156 -17.867188 36.234375 -16.484375 C 34.816406 -15.109375 33.242188 -14.421875 31.515625 -14.421875 L 14.921875 -14.421875 C 14.921875 -13.117188 15.6875 -12.019531 17.21875 -11.125 C 18.757812 -10.238281 20.300781 -9.796875 21.84375 -9.796875 C 24.550781 -9.796875 26.675781 -10.078125 28.21875 -10.640625 L 29 -10.921875 C 30.113281 -11.429688 31.046875 -11.6875 31.796875 -11.6875 C 33.285156 -11.6875 34.566406 -10.640625 35.640625 -8.546875 C 36.253906 -7.285156 36.5625 -6.210938 36.5625 -5.328125 C 36.5625 -1.171875 31.585938 0.90625 21.640625 0.90625 C 18.179688 0.90625 15.109375 0.3125 12.421875 -0.875 C 9.742188 -2.0625 7.65625 -3.640625 6.15625 -5.609375 C 3.21875 -9.390625 1.75 -13.613281 1.75 -18.28125 C 1.75 -24.164062 3.648438 -28.867188 7.453125 -32.390625 C 11.265625 -35.910156 16.015625 -37.671875 21.703125 -37.671875 C 28.191406 -37.671875 32.957031 -35.382812 36 -30.8125 C 37.582031 -28.382812 38.375 -25.734375 38.375 -22.859375 Z M 23.59375 -20.796875 C 25.375 -20.796875 26.265625 -21.546875 26.265625 -23.046875 C 26.265625 -24.117188 25.851562 -24.976562 25.03125 -25.625 C 24.21875 -26.28125 23.050781 -26.609375 21.53125 -26.609375 C 20.019531 -26.609375 18.515625 -25.988281 17.015625 -24.75 C 15.523438 -23.519531 14.78125 -22.203125 14.78125 -20.796875 Z M 23.59375 -20.796875 "/></g></g></g><g fill="#ffffff" fill-opacity="1"><g transform="translate(351.287692, 275.320406)"><g><path d="M 13.65625 -11.5625 C 14.445312 -10.757812 14.84375 -9.125 14.84375 -6.65625 L 14.84375 -6.375 C 14.84375 -5.25 14.804688 -4.414062 14.734375 -3.875 C 14.671875 -3.34375 14.425781 -2.703125 14 -1.953125 C 13.300781 -0.609375 11.539062 0.0625 8.71875 0.0625 C 5.894531 0.0625 4.023438 -0.378906 3.109375 -1.265625 C 2.203125 -2.148438 1.75 -3.828125 1.75 -6.296875 L 1.75 -6.578125 C 1.75 -7.648438 1.78125 -8.46875 1.84375 -9.03125 C 1.914062 -9.59375 2.140625 -10.222656 2.515625 -10.921875 C 3.222656 -12.328125 4.988281 -13.03125 7.8125 -13.03125 C 10.632812 -13.03125 12.582031 -12.539062 13.65625 -11.5625 Z M 13.65625 -11.5625 "/></g></g></g><g clip-path="url(#dea3bb66d4)"><g clip-path="url(#6bd1ae4aa4)"><path fill="#ffffff" d="M 114.546875 70.964844 L 241.710938 70.964844 L 241.710938 198.125 L 114.546875 198.125 Z M 114.546875 70.964844 " fill-opacity="1" fill-rule="nonzero"/></g></g><g fill="#4c8bf5" fill-opacity="1"><g transform="translate(182.153758, 183.736833)"><g><path d="M -3.28125 -11.359375 C -6.082031 -11.773438 -8.070312 -12.628906 -9.25 -13.921875 C -10.4375 -15.210938 -10.914062 -17.910156 -10.6875 -22.015625 C -10.539062 -24.390625 -9.757812 -26.222656 -8.34375 -27.515625 C -6.925781 -28.816406 -3.800781 -29.359375 1.03125 -29.140625 C 2.53125 -28.941406 4.296875 -29.050781 6.328125 -29.46875 C 8.367188 -29.882812 9.945312 -30.601562 11.0625 -31.625 C 15.757812 -35.9375 16.347656 -40.015625 12.828125 -43.859375 C 11.753906 -45.023438 10.210938 -45.40625 8.203125 -45 C 6.191406 -44.601562 4.066406 -43.703125 1.828125 -42.296875 C -0.410156 -40.890625 -3.003906 -39.554688 -5.953125 -38.296875 C -8.898438 -37.035156 -11.816406 -36.054688 -14.703125 -35.359375 C -17.597656 -34.671875 -20.742188 -34.882812 -24.140625 -36 C -27.546875 -37.113281 -30.726562 -39.285156 -33.6875 -42.515625 C -37.769531 -46.972656 -39.671875 -52.375 -39.390625 -58.71875 C -39.117188 -65.0625 -36.125 -70.851562 -30.40625 -76.09375 C -27.375 -78.875 -24.25 -81.019531 -21.03125 -82.53125 C -17.8125 -84.050781 -15.351562 -84.84375 -13.65625 -84.90625 L -10.453125 -85.203125 C -7.535156 -85.171875 -5.609375 -84.648438 -4.671875 -83.640625 C -3.742188 -82.628906 -3.082031 -80.679688 -2.6875 -77.796875 C -2.082031 -73.703125 -2.691406 -70.820312 -4.515625 -69.15625 C -5.566406 -68.175781 -7.34375 -67.46875 -9.84375 -67.03125 C -10.082031 -67 -10.601562 -66.988281 -11.40625 -67 C -12.207031 -67.007812 -12.90625 -66.976562 -13.5 -66.90625 C -15.15625 -66.59375 -16.800781 -65.679688 -18.4375 -64.171875 C -20.082031 -62.671875 -21.085938 -61.03125 -21.453125 -59.25 C -21.828125 -57.46875 -21.378906 -55.878906 -20.109375 -54.484375 C -18.835938 -53.097656 -17.160156 -52.566406 -15.078125 -52.890625 C -12.992188 -53.210938 -10.851562 -54.101562 -8.65625 -55.5625 C -6.457031 -57.019531 -3.929688 -58.476562 -1.078125 -59.9375 C 1.773438 -61.394531 4.578125 -62.546875 7.328125 -63.390625 C 10.078125 -64.242188 13.128906 -64.132812 16.484375 -63.0625 C 19.835938 -62 23.019531 -59.820312 26.03125 -56.53125 C 29.050781 -53.25 31.050781 -49.753906 32.03125 -46.046875 C 33.007812 -42.347656 33.066406 -38.84375 32.203125 -35.53125 C 30.566406 -29.09375 27.421875 -23.738281 22.765625 -19.46875 C 20.390625 -17.28125 17.867188 -15.503906 15.203125 -14.140625 C 12.546875 -12.785156 10.164062 -11.9375 8.0625 -11.59375 C 3.90625 -10.75 0.597656 -10.601562 -1.859375 -11.15625 Z M -3.28125 -11.359375 "/></g></g></g></svg>