<svg xmlns="http://www.w3.org/2000/svg" width="38.007" height="38.004" viewBox="0 0 38.007 38.004">
  <g id="total_booking" transform="translate(0.005 0.013)">
    <path id="Path_12208" data-name="Path 12208" d="M19.622,26.575c0-.485-.011-.907,0-1.329a2.533,2.533,0,0,1,5.064,0c.011.422,0,.844,0,1.3H29.75V25.425a2.54,2.54,0,1,1,5.074,0v1.118h5.064c0-.433-.011-.876,0-1.308a2.52,2.52,0,0,1,3.566-2.226,2.459,2.459,0,0,1,1.488,2.2c.021.433,0,.865,0,1.361h.475a30.9,30.9,0,0,1,3.281.084,3.02,3.02,0,0,1,2.574,3.017q.016,8.213.011,16.426c0,.454-.264.749-.644.738s-.622-.3-.622-.76V35.468H14.559V54.837a1.929,1.929,0,0,0,2.12,2.142H33.854a2.413,2.413,0,0,1,.39.011.61.61,0,0,1,.559.612.625.625,0,0,1-.58.644,3.034,3.034,0,0,1-.316.011H16.616a3.159,3.159,0,0,1-3.334-3.323V29.919A3.159,3.159,0,0,1,16.616,26.6C17.607,26.575,18.589,26.575,19.622,26.575Zm5.064,1.277v1.139a2.534,2.534,0,1,1-5.064,0v-1.15H16.563a1.9,1.9,0,0,0-2,2.015v3.956a3.008,3.008,0,0,0,.021.327H50.006c0-1.509.011-2.986,0-4.463a1.81,1.81,0,0,0-1.625-1.8c-1.129-.074-2.258-.021-3.429-.021v1.192a2.533,2.533,0,1,1-5.064-.011V27.851H34.825c0,.454.011.865,0,1.287a2.527,2.527,0,1,1-5.053-.021c-.021-.433,0-.855,0-1.287-1.741.021-3.387.021-5.086.021Zm-3.8-.686v1.857a1.268,1.268,0,1,0,2.532.011c.011-1.224.011-2.448,0-3.682a1.268,1.268,0,1,0-2.532.011c-.008.621,0,1.212,0,1.8Zm10.128.011v1.857a1.263,1.263,0,1,0,2.521.011c.011-1.224.011-2.448,0-3.682a1.262,1.262,0,1,0-2.521-.011c-.008.611,0,1.212,0,1.824Zm10.128.011v1.888a1.261,1.261,0,1,0,2.521-.011c.011-1.234.011-2.479,0-3.713a1.262,1.262,0,1,0-2.521.011c-.009.61,0,1.212,0,1.824Z" transform="translate(-13.282 -22.775)" fill="#0277fa"/>
    <path id="Path_12209" data-name="Path 12209" d="M43.074,60.766a8.224,8.224,0,1,1,5.812-2.43A8.229,8.229,0,0,1,43.074,60.766Zm6.931-8.218a6.963,6.963,0,1,0-6.942,6.963,6.963,6.963,0,0,0,6.942-6.963Z" transform="translate(-13.282 -22.775)" fill="#226816"/>
    <path id="Path_12210" data-name="Path 12210" d="M20.867,43.043c-.411,0-.812.011-1.224,0a1.255,1.255,0,0,1-1.287-1.266q-.016-.949,0-1.9a1.239,1.239,0,0,1,1.255-1.255q1.266-.016,2.532,0A1.263,1.263,0,0,1,23.42,39.91c.011.622.011,1.245,0,1.857a1.263,1.263,0,0,1-1.277,1.287C21.711,43.043,21.289,43.043,20.867,43.043Zm1.255-1.287V39.909H19.644v1.846Z" transform="translate(-13.282 -22.775)" fill="#0277fa"/>
    <path id="Path_12211" data-name="Path 12211" d="M28.516,38.612c.411,0,.823-.011,1.224,0a1.261,1.261,0,0,1,1.266,1.255c.011.644.011,1.3,0,1.941a1.245,1.245,0,0,1-1.245,1.234c-.855.011-1.709.011-2.574,0a1.252,1.252,0,0,1-1.245-1.234c-.021-.654-.021-1.319,0-1.973a1.244,1.244,0,0,1,1.224-1.213C27.619,38.591,28.073,38.612,28.516,38.612Zm-1.277,1.277v1.867h2.479V39.888Z" transform="translate(-13.282 -22.775)" fill="#0277fa"/>
    <path id="Path_12212" data-name="Path 12212" d="M36.112,38.6c.411,0,.823-.011,1.224,0A1.261,1.261,0,0,1,38.6,39.857c.011.644.011,1.3,0,1.941a1.243,1.243,0,0,1-1.234,1.234c-.855.021-1.709.011-2.574,0a1.252,1.252,0,0,1-1.245-1.266q-.016-.949,0-1.9A1.245,1.245,0,0,1,34.8,38.612C35.247,38.6,35.679,38.6,36.112,38.6Zm1.213,3.154V39.9H34.846v1.857Z" transform="translate(-13.282 -22.775)" fill="#0277fa"/>
    <path id="Path_12213" data-name="Path 12213" d="M43.665,43.043c-.411,0-.812.011-1.224,0a1.255,1.255,0,0,1-1.287-1.266q-.016-.949,0-1.9a1.239,1.239,0,0,1,1.255-1.255q1.266-.016,2.532,0a1.263,1.263,0,0,1,1.277,1.287c.011.622.011,1.245,0,1.857a1.248,1.248,0,0,1-1.277,1.277Zm-1.245-1.3h2.5V39.9h-2.5Z" transform="translate(-13.282 -22.775)" fill="#0277fa"/>
    <path id="Path_12214" data-name="Path 12214" d="M20.92,44.309c.411,0,.823-.011,1.224,0a1.261,1.261,0,0,1,1.266,1.255c.011.644.011,1.3,0,1.941a1.245,1.245,0,0,1-1.245,1.234c-.855.011-1.709.011-2.574,0A1.245,1.245,0,0,1,18.346,47.5c-.021-.644-.011-1.3,0-1.941a1.247,1.247,0,0,1,1.266-1.255C20.055,44.3,20.488,44.309,20.92,44.309Zm1.2,3.144V45.6H19.644v1.857Z" transform="translate(-13.282 -22.775)" fill="#0277fa"/>
    <path id="Path_12215" data-name="Path 12215" d="M28.474,44.309c.422,0,.844-.011,1.266,0A1.263,1.263,0,0,1,31.016,45.6c.011.622.011,1.245,0,1.857A1.257,1.257,0,0,1,29.74,48.74q-1.266.016-2.532,0a1.261,1.261,0,0,1-1.255-1.266q-.016-.949,0-1.9a1.254,1.254,0,0,1,1.255-1.266C27.63,44.3,28.052,44.309,28.474,44.309Zm1.255,3.144V45.6H27.25v1.857Z" transform="translate(-13.282 -22.775)" fill="#0277fa"/>
    <path id="Path_12216" data-name="Path 12216" d="M20.878,54.436c-.422,0-.844.011-1.266,0a1.254,1.254,0,0,1-1.255-1.266q-.016-.949,0-1.9A1.248,1.248,0,0,1,19.644,50c.833-.011,1.656-.011,2.49,0a1.248,1.248,0,0,1,1.277,1.277c.011.622.011,1.245,0,1.857A1.252,1.252,0,0,1,22.1,54.426C21.69,54.436,21.289,54.436,20.878,54.436Zm-1.255-1.287h2.5V51.3h-2.5Z" transform="translate(-13.282 -22.775)" fill="#0277fa"/>
    <path id="Path_12217" data-name="Path 12217" d="M28.5,54.436c-.422,0-.844.011-1.266,0a1.263,1.263,0,0,1-1.277-1.287c-.011-.622-.011-1.245,0-1.857a1.257,1.257,0,0,1,1.277-1.287q1.266-.016,2.532,0a1.247,1.247,0,0,1,1.255,1.266q.016.949,0,1.9a1.248,1.248,0,0,1-1.287,1.266C29.307,54.447,28.9,54.436,28.5,54.436ZM27.24,51.282v1.867h2.479V51.282Z" transform="translate(-13.282 -22.775)" fill="#0277fa"/>
    <path id="Path_12218" data-name="Path 12218" d="M34.825,45.575v1.867c.074.032.148.053.211.084a.587.587,0,0,1,.369.738.613.613,0,0,1-.686.475,1.244,1.244,0,0,1-1.171-1.182q-.032-1.029,0-2.057a1.219,1.219,0,0,1,1.16-1.182c.865-.032,1.741-.021,2.606,0a.628.628,0,1,1-.011,1.255Z" transform="translate(-13.282 -22.775)" fill="#0277fa"/>
    <path id="Path_12219" data-name="Path 12219" d="M50.333,52.548a7.29,7.29,0,1,1-7.248-7.3A7.29,7.29,0,0,1,50.333,52.548Zm-8.6,2.384c-.8-.8-1.54-1.551-2.289-2.289a.654.654,0,0,0-1.013-.053.664.664,0,0,0,.084.992c.844.855,1.7,1.7,2.542,2.542.517.517.791.517,1.319-.011Q45,53.5,47.611,50.871a1.474,1.474,0,0,0,.285-.348.626.626,0,0,0-.506-.939,1.149,1.149,0,0,0-.675.316c-1.234,1.2-2.448,2.426-3.661,3.65-.423.45-.854.908-1.319,1.382Z" transform="translate(-13.282 -22.775)" fill="#226816"/>
  </g>
</svg>
