<svg xmlns="http://www.w3.org/2000/svg" xmlns:xlink="http://www.w3.org/1999/xlink" width="38.007" height="38.005" viewBox="0 0 38.007 38.005">
  <defs>
    <clipPath id="clip-path">
      <rect id="Rectangle_17793" data-name="Rectangle 17793" width="38.007" height="38.005" transform="translate(0 0)" fill="none"/>
    </clipPath>
  </defs>
  <g id="Group_2285" data-name="Group 2285" transform="translate(0 0.001)">
    <g id="Group_2284" data-name="Group 2284" clip-path="url(#clip-path)">
      <path id="Path_12742" data-name="Path 12742" d="M6.344,3.814c0-.485-.011-.907,0-1.329a2.534,2.534,0,0,1,5.065,0c.011.422,0,.844,0,1.3h5.063V2.664a2.54,2.54,0,0,1,5.074-.247c0,.082,0,.165,0,.247V3.782H26.61c0-.433-.011-.876,0-1.308A2.52,2.52,0,0,1,30.176.248a2.459,2.459,0,0,1,1.488,2.2c.021.433,0,.865,0,1.361h.475a30.965,30.965,0,0,1,3.281.084A3.019,3.019,0,0,1,37.994,6.91q.017,8.213.011,16.426c0,.454-.264.749-.644.738s-.622-.3-.622-.76V12.707H1.281V32.076a1.93,1.93,0,0,0,1.692,2.14,1.985,1.985,0,0,0,.429,0H20.576a2.418,2.418,0,0,1,.39.011.608.608,0,0,1,.559.612.625.625,0,0,1-.58.644,3.034,3.034,0,0,1-.316.011H3.339A3.158,3.158,0,0,1,.006,32.522a3.386,3.386,0,0,1,0-.349V7.158a3.159,3.159,0,0,1,2.99-3.32,3.056,3.056,0,0,1,.345,0c.991-.025,1.973-.025,3-.025m5.065,1.277V6.23a2.534,2.534,0,1,1-5.065.2q0-.1,0-.2V5.08H3.285a1.9,1.9,0,0,0-2,1.794,2.037,2.037,0,0,0,0,.221v3.956q0,.164.021.327H36.729c0-1.509.01-2.986,0-4.463a1.811,1.811,0,0,0-1.626-1.8c-1.129-.074-2.258-.021-3.429-.021V6.286a2.533,2.533,0,1,1-5.064.131c0-.047,0-.095,0-.142V5.09H21.547c0,.454.011.865,0,1.287a2.527,2.527,0,0,1-5.053-.021c-.021-.433,0-.855,0-1.287-1.741.021-3.386.021-5.085.021Zm-3.8-.686V6.262a1.268,1.268,0,0,0,2.531.153,1.345,1.345,0,0,0,0-.142c.012-1.224.012-2.448,0-3.682A1.268,1.268,0,1,0,7.608,2.46a1.121,1.121,0,0,0,0,.142c-.007.621,0,1.212,0,1.8Zm10.128.011V6.273a1.263,1.263,0,1,0,2.521.169,1.388,1.388,0,0,0,0-.158c.011-1.224.011-2.448,0-3.682a1.262,1.262,0,0,0-2.52-.134,1.009,1.009,0,0,0,0,.123c-.007.611,0,1.212,0,1.824Zm10.129.011V6.315a1.26,1.26,0,1,0,2.52.059c0-.023,0-.047,0-.07.011-1.234.011-2.479,0-3.713a1.262,1.262,0,1,0-2.522-.112c0,.041,0,.082,0,.123-.01.61,0,1.212,0,1.824Z" fill="#56a4fb"/>
      <path id="Path_12743" data-name="Path 12743" d="M29.8,38.005a8.194,8.194,0,1,1,.013,0H29.8m6.932-8.218a6.963,6.963,0,1,0-6.964,6.963h.021a6.978,6.978,0,0,0,6.944-6.963Z" fill="#226816"/>
      <path id="Path_12744" data-name="Path 12744" d="M7.589,20.281c-.411,0-.812.011-1.224,0a1.256,1.256,0,0,1-1.287-1.223v-.043q-.017-.949,0-1.9A1.239,1.239,0,0,1,6.3,15.86h.032q1.266-.016,2.532,0a1.263,1.263,0,0,1,1.277,1.249v.039c.011.622.011,1.245,0,1.857A1.263,1.263,0,0,1,8.9,20.292H8.865c-.432-.011-.854-.011-1.276-.011m1.255-1.287V17.147H6.366v1.846Z" fill="#56a4fb"/>
      <path id="Path_12745" data-name="Path 12745" d="M15.238,15.851c.411,0,.823-.011,1.224,0a1.26,1.26,0,0,1,1.266,1.255c.012.644.012,1.3,0,1.941a1.245,1.245,0,0,1-1.245,1.234c-.855.011-1.709.011-2.573,0a1.252,1.252,0,0,1-1.246-1.234c-.021-.654-.021-1.319,0-1.973a1.245,1.245,0,0,1,1.224-1.213c.453-.031.907-.01,1.35-.01m-1.276,1.277V19h2.479V17.127Z" fill="#56a4fb"/>
      <path id="Path_12746" data-name="Path 12746" d="M22.834,15.838c.412,0,.823-.011,1.225,0a1.262,1.262,0,0,1,1.264,1.257c.01.644.01,1.3,0,1.941a1.245,1.245,0,0,1-1.235,1.234c-.855.021-1.709.011-2.574,0a1.252,1.252,0,0,1-1.245-1.259V19q-.016-.949,0-1.9A1.245,1.245,0,0,1,21.5,15.85h.017c.447-.012.879-.012,1.312-.012m1.214,3.154V17.138H21.569V19Z" fill="#56a4fb"/>
      <path id="Path_12747" data-name="Path 12747" d="M30.388,20.282c-.411,0-.812.011-1.224,0a1.256,1.256,0,0,1-1.287-1.223c0-.014,0-.029,0-.043q-.017-.95,0-1.9A1.239,1.239,0,0,1,29.1,15.861h.033q1.266-.016,2.532,0a1.263,1.263,0,0,1,1.277,1.249v.038c.011.622.011,1.245,0,1.857a1.249,1.249,0,0,1-1.219,1.277H30.388Zm-1.245-1.3h2.5V17.139h-2.5Z" fill="#56a4fb"/>
      <path id="Path_12748" data-name="Path 12748" d="M7.642,21.548c.411,0,.823-.011,1.224,0A1.261,1.261,0,0,1,10.132,22.8c.011.644.011,1.3,0,1.941a1.245,1.245,0,0,1-1.245,1.234c-.855.011-1.709.011-2.574,0a1.245,1.245,0,0,1-1.245-1.234c-.021-.644-.011-1.3,0-1.941a1.246,1.246,0,0,1,1.239-1.255h.027c.443-.009.876,0,1.308,0m1.2,3.144V22.839H6.366V24.7Z" fill="#56a4fb"/>
      <path id="Path_12749" data-name="Path 12749" d="M15.2,21.548c.422,0,.844-.011,1.266,0a1.263,1.263,0,0,1,1.276,1.25v.041c.011.622.011,1.245,0,1.857a1.258,1.258,0,0,1-1.231,1.283h-.045q-1.266.016-2.531,0a1.261,1.261,0,0,1-1.256-1.266q-.017-.949,0-1.9a1.253,1.253,0,0,1,1.242-1.266h.014c.421-.008.843,0,1.265,0m1.255,3.144V22.839H13.972V24.7Z" fill="#56a4fb"/>
      <path id="Path_12750" data-name="Path 12750" d="M7.6,31.675c-.422,0-.844.011-1.266,0a1.254,1.254,0,0,1-1.256-1.253v-.013q-.017-.95,0-1.9a1.248,1.248,0,0,1,1.229-1.267h.058c.833-.011,1.656-.011,2.49,0a1.248,1.248,0,0,1,1.277,1.218v.059c.011.622.011,1.245,0,1.857A1.253,1.253,0,0,1,8.92,31.666c-.033,0-.065,0-.1,0-.41.01-.811.01-1.222.01M6.346,30.388h2.5V28.539h-2.5Z" fill="#56a4fb"/>
      <path id="Path_12751" data-name="Path 12751" d="M15.218,31.675c-.422,0-.844.011-1.266,0a1.263,1.263,0,0,1-1.278-1.249c0-.013,0-.025,0-.038-.011-.622-.011-1.245,0-1.857A1.257,1.257,0,0,1,13.9,27.244h.051q1.266-.016,2.532,0a1.247,1.247,0,0,1,1.255,1.239v.027q.015.949,0,1.9a1.248,1.248,0,0,1-1.23,1.266h-.057c-.422.01-.829,0-1.234,0m-1.255-1.287h2.479V28.521H13.963Z" fill="#56a4fb"/>
      <path id="Path_12752" data-name="Path 12752" d="M21.548,22.813V24.68c.074.032.147.053.21.084a.587.587,0,0,1,.37.738.613.613,0,0,1-.687.475,1.244,1.244,0,0,1-1.17-1.182q-.031-1.029,0-2.057a1.219,1.219,0,0,1,1.16-1.182c.864-.032,1.74-.021,2.6,0a.628.628,0,1,1,.038,1.255h-.049Z" fill="#56a4fb"/>
      <path id="Path_12753" data-name="Path 12753" d="M29.805,22.485h-.03a7.265,7.265,0,1,0,.03,0m4.81,5.28a1.3,1.3,0,0,1-.28.34c-1.74,1.76-3.49,3.5-5.24,5.25-.52.52-.8.52-1.32.01l-2.54-2.54-.06-.06a.664.664,0,0,1-.02-.94.9.9,0,0,1,.1-.09.655.655,0,0,1,.91.15c.75.73,1.49,1.49,2.29,2.29.47-.48.9-.94,1.32-1.39,1.21-1.22,2.43-2.45,3.66-3.65a1.219,1.219,0,0,1,.68-.31.566.566,0,0,1,.28.08.621.621,0,0,1,.22.86" fill="#226816"/>
      <path id="Path_12754" data-name="Path 12754" d="M34.615,27.765a1.3,1.3,0,0,1-.28.34c-1.74,1.76-3.49,3.5-5.24,5.25-.52.52-.8.52-1.32.01l-2.54-2.54-.06-.06a.664.664,0,0,1-.02-.94.9.9,0,0,1,.1-.09.655.655,0,0,1,.91.15c.75.73,1.49,1.49,2.29,2.29.47-.48.9-.94,1.32-1.39,1.21-1.22,2.43-2.45,3.66-3.65a1.219,1.219,0,0,1,.68-.31.566.566,0,0,1,.28.08.621.621,0,0,1,.22.86" fill="#fff"/>
    </g>
  </g>
</svg>
