<svg id="total_cancel" xmlns="http://www.w3.org/2000/svg" width="38" height="37.991" viewBox="0 0 38 37.991">
  <g id="Group_2088" data-name="Group 2088" transform="translate(-13.282 -22.775)">
    <path id="Path_12220" data-name="Path 12220" d="M19.622,26.575c0-.485-.011-.907,0-1.329a2.533,2.533,0,0,1,5.064,0c.011.422,0,.844,0,1.3H29.75V25.425a2.54,2.54,0,1,1,5.074,0v1.118h5.064c0-.433-.011-.876,0-1.308a2.52,2.52,0,0,1,3.566-2.226,2.459,2.459,0,0,1,1.488,2.2c.021.433,0,.865,0,1.361h.475a30.9,30.9,0,0,1,3.281.084,3.02,3.02,0,0,1,2.574,3.017q.016,8.213.011,16.426c0,.454-.264.749-.644.738s-.622-.3-.622-.76V35.468H14.559V54.837a1.929,1.929,0,0,0,2.12,2.142H33.854a2.414,2.414,0,0,1,.39.011.61.61,0,0,1,.559.612.625.625,0,0,1-.58.644c-.105.011-.211.011-.316.011H16.616a3.159,3.159,0,0,1-3.334-3.323V29.919A3.159,3.159,0,0,1,16.616,26.6C17.607,26.575,18.589,26.575,19.622,26.575Zm5.064,1.277v1.139a2.534,2.534,0,1,1-5.064,0v-1.15H16.563a1.9,1.9,0,0,0-2,2.015v3.956a3.008,3.008,0,0,0,.021.327H50.006c0-1.509.011-2.986,0-4.463a1.81,1.81,0,0,0-1.625-1.8c-1.129-.074-2.258-.021-3.429-.021v1.192a2.533,2.533,0,1,1-5.064-.011V27.851H34.825c0,.454.011.865,0,1.287a2.527,2.527,0,0,1-5.053-.021c-.021-.433,0-.855,0-1.287C28.031,27.851,26.385,27.851,24.686,27.851Zm-3.8-.686v1.857a1.268,1.268,0,1,0,2.532.011c.011-1.224.011-2.448,0-3.682a1.268,1.268,0,1,0-2.532.011C20.878,25.984,20.888,26.575,20.888,27.165Zm10.128.011v1.857a1.263,1.263,0,1,0,2.521.011c.011-1.224.011-2.448,0-3.682a1.262,1.262,0,1,0-2.521-.011C31.006,25.963,31.016,26.564,31.016,27.176Zm10.128.011v1.888a1.261,1.261,0,1,0,2.521-.011c.011-1.234.011-2.479,0-3.713a1.262,1.262,0,1,0-2.521.011C41.133,25.973,41.144,26.575,41.144,27.187Z" fill="#56a4fb"/>
    <path id="Path_12221" data-name="Path 12221" d="M43.074,60.766a8.229,8.229,0,1,1,8.2-8.26A8.224,8.224,0,0,1,43.074,60.766Zm6.931-8.218a6.963,6.963,0,1,0-6.942,6.963A6.977,6.977,0,0,0,50.006,52.548Z" fill="#ff0303"/>
    <path id="Path_12222" data-name="Path 12222" d="M20.867,43.043c-.411,0-.812.011-1.224,0a1.255,1.255,0,0,1-1.287-1.266q-.016-.949,0-1.9a1.239,1.239,0,0,1,1.255-1.255q1.266-.016,2.532,0A1.263,1.263,0,0,1,23.42,39.91c.011.622.011,1.245,0,1.857a1.263,1.263,0,0,1-1.277,1.287C21.711,43.043,21.289,43.043,20.867,43.043Zm1.255-1.287V39.909H19.644v1.846Z" fill="#56a4fb"/>
    <path id="Path_12223" data-name="Path 12223" d="M28.516,38.612c.411,0,.823-.011,1.224,0a1.261,1.261,0,0,1,1.266,1.255c.011.644.011,1.3,0,1.941a1.245,1.245,0,0,1-1.245,1.234c-.855.011-1.709.011-2.574,0a1.252,1.252,0,0,1-1.245-1.234c-.021-.654-.021-1.319,0-1.973a1.244,1.244,0,0,1,1.224-1.213C27.619,38.591,28.073,38.612,28.516,38.612Zm-1.277,1.277v1.867h2.479V39.888Z" fill="#56a4fb"/>
    <path id="Path_12224" data-name="Path 12224" d="M36.112,38.6c.411,0,.823-.011,1.224,0A1.261,1.261,0,0,1,38.6,39.857c.011.644.011,1.3,0,1.941a1.243,1.243,0,0,1-1.234,1.234c-.855.021-1.709.011-2.574,0a1.252,1.252,0,0,1-1.245-1.266q-.016-.949,0-1.9A1.245,1.245,0,0,1,34.8,38.612C35.247,38.6,35.679,38.6,36.112,38.6Zm1.213,3.154V39.9H34.846v1.857Z" fill="#56a4fb"/>
    <path id="Path_12225" data-name="Path 12225" d="M43.665,43.043c-.411,0-.812.011-1.224,0a1.255,1.255,0,0,1-1.287-1.266q-.016-.949,0-1.9a1.239,1.239,0,0,1,1.255-1.255q1.266-.016,2.532,0a1.263,1.263,0,0,1,1.277,1.287c.011.622.011,1.245,0,1.857a1.248,1.248,0,0,1-1.277,1.277Zm-1.245-1.3h2.5V39.9h-2.5Z" fill="#56a4fb"/>
    <path id="Path_12226" data-name="Path 12226" d="M20.92,44.309c.411,0,.823-.011,1.224,0a1.261,1.261,0,0,1,1.266,1.255c.011.644.011,1.3,0,1.941a1.245,1.245,0,0,1-1.245,1.234c-.855.011-1.709.011-2.574,0a1.245,1.245,0,0,1-1.245-1.234c-.021-.644-.011-1.3,0-1.941a1.247,1.247,0,0,1,1.266-1.255C20.055,44.3,20.488,44.309,20.92,44.309Zm1.2,3.144V45.6H19.644v1.857Z" fill="#56a4fb"/>
    <path id="Path_12227" data-name="Path 12227" d="M28.474,44.309c.422,0,.844-.011,1.266,0A1.263,1.263,0,0,1,31.016,45.6c.011.622.011,1.245,0,1.857A1.257,1.257,0,0,1,29.74,48.74q-1.266.016-2.532,0a1.261,1.261,0,0,1-1.255-1.266q-.016-.949,0-1.9a1.254,1.254,0,0,1,1.255-1.266C27.63,44.3,28.052,44.309,28.474,44.309Zm1.255,3.144V45.6H27.25v1.857Z" fill="#56a4fb"/>
    <path id="Path_12228" data-name="Path 12228" d="M20.878,54.436c-.422,0-.844.011-1.266,0a1.254,1.254,0,0,1-1.255-1.266q-.016-.949,0-1.9a1.248,1.248,0,0,1,1.287-1.266c.833-.011,1.656-.011,2.49,0a1.248,1.248,0,0,1,1.277,1.277c.011.622.011,1.245,0,1.857A1.252,1.252,0,0,1,22.1,54.426C21.69,54.436,21.289,54.436,20.878,54.436Zm-1.255-1.287h2.5V51.3h-2.5Z" fill="#56a4fb"/>
    <path id="Path_12229" data-name="Path 12229" d="M28.495,54.436c-.422,0-.844.011-1.266,0a1.263,1.263,0,0,1-1.277-1.287c-.011-.622-.011-1.245,0-1.857a1.257,1.257,0,0,1,1.277-1.287q1.266-.016,2.532,0a1.247,1.247,0,0,1,1.255,1.266q.016.949,0,1.9a1.248,1.248,0,0,1-1.287,1.266C29.307,54.447,28.9,54.436,28.495,54.436Zm-1.255-3.154v1.867h2.479V51.282Z" fill="#56a4fb"/>
    <path id="Path_12230" data-name="Path 12230" d="M34.825,45.575v1.867c.074.032.148.053.211.084a.587.587,0,0,1,.369.738.613.613,0,0,1-.686.475,1.244,1.244,0,0,1-1.171-1.182q-.032-1.029,0-2.057a1.219,1.219,0,0,1,1.16-1.182c.865-.032,1.741-.021,2.606,0a.628.628,0,1,1-.011,1.255Z" fill="#56a4fb"/>
    <path id="Path_12231" data-name="Path 12231" d="M50.333,52.548a7.29,7.29,0,1,1-7.248-7.3A7.305,7.305,0,0,1,50.333,52.548Z" fill="#ff0303"/>
  </g>
  <path id="Path_12232" data-name="Path 12232" d="M46.028,47.115" transform="translate(-13.282 -22.775)" fill="none" stroke="#fff" stroke-miterlimit="10" stroke-width="1.055"/>
  <path id="Path_12233" data-name="Path 12233" d="M39.709,58.055" transform="translate(-13.282 -22.775)" fill="none" stroke="#fff" stroke-miterlimit="10" stroke-width="1.055"/>
  <path id="Path_12234" data-name="Path 12234" d="M38.58,48.835l7.923,8.44a.8.8,0,0,0,1.1.063h0a.806.806,0,0,0,.063-1.15l-7.891-8.461a.794.794,0,0,0-1.108-.053l-.032.021A.794.794,0,0,0,38.58,48.835Z" transform="translate(-13.282 -22.775)" fill="#fff"/>
  <path id="Path_12235" data-name="Path 12235" d="M46.556,47.79,38.506,56.1a.8.8,0,0,0-.011,1.1h0a.806.806,0,0,0,1.15.011l8.071-8.292a.783.783,0,0,0,0-1.108L47.7,47.79A.784.784,0,0,0,46.556,47.79Z" transform="translate(-13.282 -22.775)" fill="#fff"/>
</svg>
