<?xml version="1.0" encoding="UTF-8"?>
<svg id="Layer_2" data-name="Layer 2" xmlns="http://www.w3.org/2000/svg" viewBox="0 0 790.24 818.55">
  <g id="Layer_1-2" data-name="Layer 1">
    <g id="withdrawal">
      <path d="m220.71,659.46c-21.22-14.57-37.05-32.88-44.62-56.91-3.65-11.59-6.17-24.01-6.41-36.11-.79-39.38-.3-78.78-.3-118.17,0-3.2,0-6.39,0-10.8-9.49,0-18.47.03-27.46,0-40.63-.17-71.19-30.77-71.29-71.49-.08-33.81-.02-67.61-.02-101.42,0-3.19,0-6.38,0-10.13-21.01-1.03-38.71-8.35-52.52-23.81C6.49,217.64.14,202.48.1,184.98c-.09-38.51-.17-77.02,0-115.53C.29,31.17,31.44.08,69.89.07c216.91-.09,433.82-.09,650.73,0,38.34.02,69.32,31.23,69.5,69.66.18,37.63.11,75.26.02,112.89-.09,38.91-28.1,68.66-67.02,71.38-.85.06-1.68.29-3.51.62,0,3.06,0,6.21,0,9.35,0,25.28-1.6,50.69.31,75.82,5.28,69.59-27.37,103.92-98.39,97.72-4.59-.4-9.25-.05-14.8-.05v10.23c0,35.87-.74,71.75.19,107.59,1.13,43.67-15.18,78.16-51.05,104.03,1.13,1.27,2.08,2.64,3.3,3.67,12.43,10.55,18.46,24.48,19.04,40.24.79,21.42.93,42.93.02,64.34-1.19,28.02-26.54,50.86-55.55,50.9-79.95.12-159.89.04-239.84.04-9.99,0-19.99.09-29.98-.03-30.18-.34-54.83-24.82-55.23-54.99-.24-18.22-.69-36.46-.12-54.66.73-23.46,5.56-33.05,23.18-49.39Zm-22.81-221.75c-.15,2.01-.34,3.42-.34,4.82,0,40.86-.1,81.72.13,122.57.04,6.39,1.01,12.92,2.55,19.14,9.68,39.26,42.84,64.82,84.58,64.93,67.89.18,135.77.08,203.66.04,53.9-.03,90.04-36.19,90.1-90.11.07-65.55.22-131.1.04-196.65-.05-18.79-.88-37.59-1.8-56.36-.88-17.94-11.32-29.4-27.27-35.47-16.02-6.1-30.44-2.04-42.93,9.75-10.59,9.99-12.63,22.89-12.71,36.3-.22,34.68-.02,69.37-.07,104.05-.02,11.71-4.68,16.35-16.47,16.8-69.4,2.63-121.93,55.21-124.57,124.7-.4,10.62-5.46,16.43-14.25,16.36-8.8-.07-14.12-6.1-13.89-16.61,1-47.38,20.08-86.17,55.93-116.9,2.52-2.16,5.08-4.28,8.74-7.36h-191.42Zm522.16-212.32c24.69-1.05,41.72-18.61,41.89-43.44.24-34.68.07-69.37.06-104.05,0-33.36-16.38-49.7-49.82-49.7-211.3,0-422.6,0-633.9,0-2.94,0-5.88-.08-8.81.07-22.53,1.19-40.56,18.06-40.98,40.54-.73,38.79-.75,77.61,0,116.39.45,23.11,20.25,41.04,41.81,39.64v-83c-7.58-2-14.51-5.79-13.4-14.51.6-4.69,4.53-9.69,8.32-12.96,2.34-2.02,7.25-1.38,11-1.38,212.48-.05,424.95-.05,637.43-.04,2.64,0,5.94-.93,7.8.29,4.35,2.86,9.53,6.05,11.58,10.42,2.63,5.62-.14,11.57-5.72,15.16-2.33,1.5-5.1,2.32-7.28,3.28v83.3Zm-266.88-84.29c3.02,4.23,4.93,6.82,6.75,9.48,29.88,43.58,25.83,109.24-9.15,148.38-30.82,34.48-81.38,34.66-111.42-.47-26.38-30.86-33.26-67.15-26.08-106.5,3.36-18.42,11.55-34.79,23.84-50.88h-10.01c-35.56,0-71.13.32-106.69-.21-9.62-.14-15.71,1.65-20.92,10.92-9.47,16.83-25.66,25.88-43.89,30.57v115.11c29.36,7.67,47.44,26.22,54.98,54.67h255.12c0-13.91-.07-27.13.01-40.35.29-45.86,44.75-79.48,88.88-66.84,31.8,9.11,47.99,31.7,52.79,63.64,9.1-3.95,18.1-7.86,27.31-11.86v-114.54c-20.57-5.06-36.72-16.09-46.84-34.61-2.89-5.3-6.07-6.67-11.68-6.62-28.8.26-57.61.12-86.41.12-11.67,0-23.33,0-36.59,0Zm-64.82,536.3c-43.51,0-87.01-.04-130.52.02-20.75.03-31.99,11.42-32.06,32.32-.05,16.76-.14,33.52.03,50.28.19,18.35,12.08,30.29,30.54,30.31,87.89.1,175.79.1,263.68,0,18.37-.02,30.12-12.05,30.3-30.55.16-16.46.07-32.93.03-49.39-.05-21.81-11.28-32.95-33.25-32.97-42.92-.03-85.84,0-128.75,0Zm76.96-296.38h-10.32c-84.33,0-168.67,0-253,0-13.5,0-17.31-3.4-18.62-16.47-2.24-22.26-17.78-37.74-40.02-39.88-12.62-1.21-16.28-5.17-16.29-17.89-.02-44.67-.03-89.35,0-134.02,0-12.23,3.82-16.32,15.71-17.59,10.6-1.13,20.35-4.22,28.46-13.53h-72.47v9.17c0,70.24-.02,140.49,0,210.73.01,30.76,17.18,47.77,48.21,47.77,102.85.01,205.69,0,308.54,0h9.79v-28.29Zm-13.67-162.43c-1.02-21.82-5.96-42.05-20.3-59-20.49-24.22-51.82-24.24-72.38-.13-26.82,31.46-26.88,86.9-.12,118.42,20.6,24.27,51.63,24.34,72.31.06,14.61-17.15,19.58-37.67,20.49-59.35Zm155.24,190.72c12.66,0,24.36,0,36.06,0,31.53-.03,48.5-16.91,48.51-48.34.02-69.93,0-139.86,0-209.8,0-3.13,0-6.26,0-9.54h-72.5c8.22,8.9,17.73,12.18,28.1,13.47,12.62,1.57,16.11,5.33,16.12,18.13.02,44.66.03,89.32,0,133.99,0,12.06-3.98,16.34-15.86,17.42-22.31,2.04-38.85,17.65-40.24,39.46-.93,14.6-.18,29.3-.18,45.2Z"/>
    </g>
  </g>
</svg>